<svg
                                xmlns="http://www.w3.org/2000/svg" version="1.1"
                                xmlns:xlink="http://www.w3.org/1999/xlink" width="30" height="30" x="0" y="0"
                                viewBox="0 0 490.667 490.667" style="enable-background:new 0 0 512 512"
                                xml:space="preserve" class="">
                                <circle r="245.3335" cx="245.3335" cy="245.3335" fill="#2196f3" shape="circle"
                                    transform="matrix(0.72,0,0,0.72,68.69337890625002,68.69337890625002)"></circle>
                                <g transform="matrix(0.7,0,0,0.7,73.59989776611329,73.59989776611329)">
                                    <path
                                        d="M245.333 0C109.839 0 0 109.839 0 245.333s109.839 245.333 245.333 245.333 245.333-109.839 245.333-245.333C490.514 109.903 380.764.153 245.333 0z"
                                        fill="#fafafa" data-original="#2196f3" class="" opacity="1"></path>
                                    <path
                                        d="m317.867 221.867-19.2 19.2V117.333c0-29.455-23.878-53.333-53.333-53.333S192 87.878 192 117.333v123.584l-19.2-19.2c-19.139-18.289-49.277-18.289-68.416 0-18.889 18.894-18.889 49.522 0 68.416l118.251 118.251c12.496 12.492 32.752 12.492 45.248 0l118.251-118.251c18.889-18.894 18.889-49.522 0-68.416-19.159-18.152-49.188-18.086-68.267.15z"
                                        fill="#2196f3" data-original="#fafafa" class="" opacity="1"></path>
                                </g>
                            </svg>