<svg width="64" height="64" viewBox="0 0 64 64" fill="none" xmlns="http://www.w3.org/2000/svg">
<g clip-path="url(#clip0_4_117)">
<path d="M63.893 14.2402C63.4514 14.1024 62.9757 14.3245 62.8304 14.7327C62.4497 15.7809 61.9408 16.3743 61.3701 16.7697C61.2037 16.8834 61.0235 16.979 60.8392 17.0656C60.9301 16.7456 60.9797 16.4165 60.9821 16.0837C60.9805 15.558 60.8555 15.0173 60.5462 14.5339C60.2767 14.1144 59.9 13.7854 59.4682 13.5632C59.0364 13.3411 58.5526 13.2251 58.0615 13.2251C57.5703 13.2251 57.102 13.3388 56.662 13.567C56.6563 13.5707 56.6482 13.5707 56.6425 13.5745C56.6328 13.5798 56.6206 13.5835 56.6109 13.5896H56.6068V13.5911H56.6052L56.5857 13.6024V13.6039H56.5816C56.5654 13.6152 56.5516 13.6242 56.5378 13.6355C56.5362 13.6355 56.5338 13.637 56.5321 13.637C56.1181 13.8833 55.7869 14.2146 55.5613 14.5896C55.3218 14.9902 55.1968 15.439 55.1968 15.8969C55.1968 16.3547 55.3275 16.8397 55.6051 17.2682C55.9517 17.8028 56.4656 18.2313 57.0581 18.5499C57.171 18.6109 57.2903 18.6621 57.4088 18.7155C57.1336 18.8774 56.8219 19.0281 56.4794 19.1568C56.0232 19.33 55.5101 19.458 54.9557 19.5281C53.0952 16.8751 50.3223 14.4352 46.3431 12.3839C37.2167 7.68119 25.1104 10.8063 19.0937 14.2944C15.3524 12.0978 12.0227 12.6709 11.0137 12.9487L12.3912 19.76C9.64019 22.9168 7.42494 23.974 7.42494 23.974L1.86369 24.9907C1.07874 24.9907 0.345733 25.3604 -0.0861137 25.9689C-0.517961 26.5773 -0.589395 27.3477 -0.278498 28.0171L3.98802 39.2962C4.35899 40.0907 5.20077 40.6035 6.13265 40.6035L15.2485 42.3762L19.0913 51.3532C21.0159 55.3022 26.1624 54.4731 26.3686 51.2267L27.1909 46.7702H40.5083C40.5083 46.7702 40.9207 48.7537 41.1244 50.4616C41.4337 53.0408 45.5184 56.3835 49.6364 51.2267C54.3769 45.2882 61.9391 31.6912 55.8551 20.9521C56.6303 20.7902 57.3358 20.5424 57.934 20.2352C58.447 19.9739 58.8911 19.6742 59.258 19.3654C59.3927 19.2517 59.5137 19.1372 59.6289 19.0198C59.637 19.0198 59.6452 19.0175 59.6549 19.016V19.0183C60.5486 18.8805 61.5097 18.6154 62.3742 18.022C63.2404 17.4301 63.9677 16.5144 64.4255 15.2259C64.5741 14.82 64.3346 14.3788 63.8963 14.2425L63.893 14.2402ZM59.1565 16.8435C59.0656 17.086 58.9308 17.3126 58.7758 17.4964C58.4884 17.4557 58.1751 17.3533 57.8918 17.2004C57.5176 17.0016 57.2018 16.7222 57.0435 16.4685C56.9283 16.2885 56.8731 16.0919 56.8731 15.8969C56.8731 15.7019 56.9266 15.5128 57.0257 15.3472C57.1247 15.1838 57.2676 15.0422 57.4559 14.9353C57.6483 14.8321 57.8545 14.7847 58.0606 14.7824C58.2668 14.7824 58.473 14.8321 58.6532 14.9255C58.8334 15.0173 58.9885 15.1514 59.1029 15.3299C59.2295 15.5264 59.301 15.7854 59.301 16.0837C59.301 16.3284 59.2515 16.5957 59.1565 16.8435Z" fill="url(#paint0_linear_4_117)"/>
<path d="M17.6626 26.8928C18.3613 26.8928 18.9277 26.4531 18.9277 25.9106C18.9277 25.3682 18.3613 24.9285 17.6626 24.9285C16.964 24.9285 16.3976 25.3682 16.3976 25.9106C16.3976 26.4531 16.964 26.8928 17.6626 26.8928Z" fill="white"/>
<path fill-rule="evenodd" clip-rule="evenodd" d="M24.4098 27.2857C24.4098 22.7291 28.3743 19.0357 33.2651 19.0357C38.156 19.0357 42.1205 22.7291 42.1205 27.2857C42.1205 31.8422 38.156 35.5357 33.2651 35.5357C28.3743 35.5357 24.4098 31.8422 24.4098 27.2857ZM30.6085 22.3357C30.1192 22.3357 29.723 22.7048 29.723 23.1607C29.723 23.6165 30.1192 23.9857 30.6085 23.9857C31.4859 23.9857 32.0724 24.2627 32.4441 24.6189C32.6263 24.7939 32.7693 24.9994 32.8689 25.2232H30.6085C30.1192 25.2232 29.723 25.5923 29.723 26.0482C29.723 26.504 30.1192 26.8732 30.6085 26.8732H32.8689C32.7791 27.0748 32.6541 27.2613 32.4981 27.4242C32.1435 27.7918 31.5798 28.0825 30.7343 28.1091C30.3283 28.1221 30.0244 28.3626 29.8937 28.6404C29.7598 28.925 29.7753 29.3269 30.0906 29.6199L32.6394 31.9944C32.9849 32.3163 33.5462 32.3163 33.8917 31.9944C34.2373 31.6725 34.2373 31.1496 33.8917 30.8277L32.409 29.4463C32.9661 29.2325 33.4391 28.9174 33.8157 28.5262C34.2781 28.046 34.5771 27.4721 34.7184 26.8732H35.9217C36.4111 26.8732 36.8073 26.504 36.8073 26.0482C36.8073 25.5923 36.4111 25.2232 35.9217 25.2232H34.7184C34.6155 24.7893 34.4309 24.3677 34.1597 23.9857H35.9209C36.4103 23.9857 36.8065 23.6165 36.8065 23.1607C36.8065 22.7048 36.4103 22.3357 35.9209 22.3357H30.6077H30.6085Z" fill="white"/>
</g>
<defs>
<linearGradient id="paint0_linear_4_117" x1="-0.469604" y1="32" x2="64.4696" y2="32" gradientUnits="userSpaceOnUse">
<stop stop-color="#00AE42"/>
<stop offset="1" stop-color="#005CB9"/>
</linearGradient>
<clipPath id="clip0_4_117">
<rect width="64" height="64" fill="white"/>
</clipPath>
</defs>
</svg>
