<svg width="64" height="64" viewBox="0 0 64 64" fill="none" xmlns="http://www.w3.org/2000/svg">
<path d="M28.5119 39.0378H32.2142V51.3568H28.5119V39.0378ZM17.4084 38.1613H21.1108L17.6389 54H13.9365L17.4084 38.1613ZM43.3195 38.1613H39.6172L43.0891 54H46.7914L43.3195 38.1613Z" fill="#005CB9"/>
<path d="M11.8512 11.7599H48.875V38.1578H11.8512V11.7599Z" fill="#E9EDED"/>
<path d="M10 10H50.7262V11.7599H10V10ZM10 38.1578H50.7262V39.9177H10V38.1578Z" fill="#005CB9"/>
<path d="M37.7678 34.6381C43.391 34.6381 47.9494 30.3045 47.9494 24.9588C47.9494 19.6131 43.391 15.2796 37.7678 15.2796C32.1447 15.2796 27.5863 19.6131 27.5863 24.9588C27.5863 30.3045 32.1447 34.6381 37.7678 34.6381Z" fill="#00AE42"/>
<path d="M37.7679 32.8782C42.3686 32.8782 46.0982 29.3326 46.0982 24.9588C46.0982 20.5851 42.3686 17.0394 37.7679 17.0394C33.1671 17.0394 29.4375 20.5851 29.4375 24.9588C29.4375 29.3326 33.1671 32.8782 37.7679 32.8782Z" fill="#1C355E"/>
<path d="M37.7679 31.1183C41.3462 31.1183 44.247 28.3606 44.247 24.9588C44.247 21.557 41.3462 18.7993 37.7679 18.7993C34.1895 18.7993 31.2887 21.557 31.2887 24.9588C31.2887 28.3606 34.1895 31.1183 37.7679 31.1183Z" fill="#00AE42"/>
<path d="M37.7679 29.3585C40.3238 29.3585 42.3958 27.3887 42.3958 24.9588C42.3958 22.5289 40.3238 20.5592 37.7679 20.5592C35.2119 20.5592 33.1399 22.5289 33.1399 24.9588C33.1399 27.3887 35.2119 29.3585 37.7679 29.3585Z" fill="#1C355E"/>
<path d="M37.7678 27.5986C39.3013 27.5986 40.5445 26.4167 40.5445 24.9588C40.5445 23.5009 39.3013 22.319 37.7678 22.319C36.2342 22.319 34.991 23.5009 34.991 24.9588C34.991 26.4167 36.2342 27.5986 37.7678 27.5986Z" fill="#00AE42"/>
<path d="M37.7678 25.8388C38.2789 25.8388 38.6934 25.4448 38.6934 24.9588C38.6934 24.4729 38.2789 24.0789 37.7678 24.0789C37.2566 24.0789 36.8422 24.4729 36.8422 24.9588C36.8422 25.4448 37.2566 25.8388 37.7678 25.8388Z" fill="#455A64"/>
<path d="M37.7678 24.9588H53.5029" stroke="#1C355E" stroke-linecap="round" stroke-linejoin="round"/>
<path d="M53.0058 24.9949L53.9999 23.609M51.1555 24.9949L52.1496 23.609M53.0058 24.9236L53.9999 26.3095M51.1555 24.9236L52.1496 26.3095" stroke="#1C355E" stroke-width="0.92" stroke-linecap="round" stroke-linejoin="round"/>
<path d="M17.4048 16.1595C17.4048 15.6735 17.7987 15.2796 18.2847 15.2796H23.004C23.49 15.2796 23.8839 15.6735 23.8839 16.1595C23.8839 16.6455 23.49 17.0394 23.004 17.0394H18.2847C17.7987 17.0394 17.4048 16.6455 17.4048 16.1595Z" fill="#2890FA"/>
<path d="M14.628 18.7993H26.6607V19.6792H14.628V18.7993ZM14.628 20.5592H26.6607V21.4391H14.628V20.5592ZM14.628 22.319H26.6607V23.199H14.628V22.319ZM14.628 24.0789H26.6607V24.9588H14.628V24.0789ZM14.628 25.8388H26.6607V26.7187H14.628V25.8388ZM14.628 27.5986H26.6607V28.4785H14.628V27.5986ZM14.628 29.3585H26.6607V30.2384H14.628V29.3585ZM14.628 31.1183H26.6607V31.9983H14.628V31.1183ZM11.8512 11.7599H48.875V13.5197H11.8512V11.7599Z" fill="#74B9FF"/>
<path fill-rule="evenodd" clip-rule="evenodd" d="M37.7217 25.3988C37.599 25.4046 37.4837 25.4566 37.4013 25.5432C37.3188 25.6299 37.2759 25.7441 37.2821 25.8608C37.2882 25.9775 37.3429 26.087 37.434 26.1654C37.5251 26.2438 37.6453 26.2846 37.768 26.2787H48.8751V25.3988H37.768C37.7526 25.3981 37.7371 25.3981 37.7217 25.3988Z" fill="#B0BEC5"/>
<path fill-rule="evenodd" clip-rule="evenodd" d="M37.7217 25.3988C37.599 25.4046 37.4837 25.4566 37.4013 25.5432C37.3188 25.6299 37.2759 25.7441 37.2821 25.8608C37.2882 25.9775 37.3429 26.087 37.434 26.1654C37.5251 26.2438 37.6453 26.2846 37.768 26.2787H47.8431C47.885 25.9868 47.9127 25.6932 47.9264 25.3988H37.768C37.7526 25.3981 37.7371 25.3981 37.7217 25.3988Z" fill="#00AE42"/>
<path fill-rule="evenodd" clip-rule="evenodd" d="M37.7217 25.3988C37.599 25.4046 37.4837 25.4566 37.4013 25.5432C37.3188 25.6299 37.2759 25.7441 37.2821 25.8608C37.2882 25.9775 37.3429 26.087 37.434 26.1654C37.5251 26.2438 37.6453 26.2846 37.768 26.2787H45.9716C46.0233 25.9875 46.058 25.6937 46.0752 25.3988H37.768C37.7526 25.3981 37.7371 25.3981 37.7217 25.3988Z" fill="#263238"/>
<path fill-rule="evenodd" clip-rule="evenodd" d="M37.7217 25.3988C37.599 25.4046 37.4837 25.4566 37.4013 25.5432C37.3188 25.6299 37.2759 25.7441 37.2821 25.8608C37.2882 25.9775 37.3429 26.087 37.434 26.1654C37.5251 26.2438 37.6453 26.2846 37.768 26.2787H44.0935C44.1589 25.9888 44.2023 25.6947 44.2231 25.3988H37.768C37.7526 25.3981 37.7371 25.3981 37.7217 25.3988Z" fill="#00AE42"/>
<path fill-rule="evenodd" clip-rule="evenodd" d="M37.7217 25.3988C37.599 25.4046 37.4837 25.4566 37.4013 25.5432C37.3188 25.6299 37.2759 25.7441 37.2821 25.8608C37.2882 25.9775 37.3429 26.087 37.434 26.1654C37.5251 26.2438 37.6453 26.2846 37.768 26.2787H42.1831C42.2778 25.9923 42.3413 25.6975 42.3728 25.3988H37.768C37.7526 25.3981 37.7371 25.3981 37.7217 25.3988Z" fill="#263238"/>
<path fill-rule="evenodd" clip-rule="evenodd" d="M37.7217 25.3988C37.599 25.4046 37.4837 25.4566 37.4013 25.5432C37.3188 25.6299 37.2759 25.7441 37.2821 25.8608C37.2882 25.9775 37.3429 26.087 37.434 26.1654C37.5251 26.2438 37.6453 26.2846 37.768 26.2787H40.169C40.3343 26.0066 40.4471 25.7086 40.5022 25.3988H37.768C37.7526 25.3981 37.7371 25.3981 37.7217 25.3988Z" fill="#00AE42"/>
<path d="M40.0041 39.9177L40.1976 40.7976H43.8999L43.7065 39.9177H40.0041ZM28.5119 39.9177V40.7976H32.2143V39.9177H28.5119ZM17.0197 39.9177L16.8263 40.7976H20.5287L20.7221 39.9177H17.0197Z" fill="#00366C"/>
</svg>
