<svg width="64" height="64" viewBox="0 0 64 64" fill="none" xmlns="http://www.w3.org/2000/svg">
<path d="M53.8049 47.7339L51.1484 37.4648C50.9096 36.5448 50.4667 35.7479 49.8806 35.1839C49.2945 34.62 48.594 34.3167 47.8757 34.3159H43.8759C43.8498 33.93 43.789 33.55 43.6948 33.1843L43.2558 31.4855C43.3359 31.4709 43.4153 31.4493 43.4933 31.4207L45.117 30.8272L46.7426 31.4207C47.0736 31.5431 47.4226 31.5445 47.7541 31.4248C48.0856 31.3051 48.388 31.0685 48.6305 30.7391C48.8731 30.4097 49.0472 29.9991 49.1354 29.5489C49.2235 29.0987 49.2225 28.6248 49.1324 28.1753L48.6953 25.9703L49.1324 23.7639C49.2212 23.3154 49.2215 22.843 49.1332 22.3944C49.0448 21.9457 48.871 21.5365 48.6293 21.2081C48.3875 20.8796 48.0863 20.6434 47.756 20.5233C47.4256 20.4032 47.0778 20.4033 46.7475 20.5237L45.1219 21.1173L43.4982 20.5237C43.2183 20.4216 42.9251 20.4056 42.6401 20.477C42.3551 20.5483 42.0854 20.7052 41.8507 20.9361C41.616 21.167 41.4223 21.4662 41.2836 21.8118C41.1449 22.1574 41.0648 22.5407 41.049 22.9337L41.0432 22.9099C40.8044 21.9899 40.3615 21.193 39.7754 20.629C39.1893 20.0651 38.4888 19.7618 37.7705 19.761H35.0546L35.9882 19.0299C36.2845 18.798 36.5307 18.4642 36.7019 18.062C36.8731 17.6598 36.9632 17.2035 36.9632 16.7389C36.9632 16.2744 36.8731 15.8181 36.7019 15.4159C36.5307 15.0137 36.2845 14.6798 35.9882 14.448L34.528 13.3071L33.6879 11.3241C33.5172 10.9216 33.2714 10.5873 32.9752 10.3548C32.6791 10.1224 32.343 10 32.001 10C31.6589 10 31.3229 10.1224 31.0267 10.3548C30.7306 10.5873 30.4848 10.9216 30.314 11.3241L29.4739 13.3071L28.0138 14.448C27.7174 14.6798 27.4712 15.0137 27.3001 15.4159C27.1289 15.8181 27.0388 16.2744 27.0388 16.7389C27.0388 17.2035 27.1289 17.6598 27.3001 18.062C27.4712 18.4642 27.7174 18.798 28.0138 19.0299L28.9473 19.761H26.2314C25.5133 19.7619 24.813 20.0651 24.2269 20.6288C23.6408 21.1924 23.1978 21.9889 22.9588 22.9086L22.2345 25.7112C22.2053 25.6662 22.1742 25.6213 22.143 25.579C21.9012 25.2507 21.6 25.0147 21.2697 24.8947C20.9393 24.7747 20.5916 24.775 20.2614 24.8955L18.6367 25.4877L17.0121 24.8955C16.6818 24.7749 16.334 24.7745 16.0036 24.8945C15.6732 25.0144 15.3719 25.2505 15.1301 25.5788C14.8882 25.9071 14.7143 26.3162 14.6258 26.7648C14.5374 27.2134 14.5375 27.6858 14.6262 28.1343L15.0623 30.3407L14.6252 32.5471C14.5559 32.8986 14.5408 33.2658 14.5808 33.6257C14.6209 33.9856 14.7152 34.3303 14.8578 34.6384C14.394 34.8856 13.9747 35.2655 13.6285 35.7523C13.2823 36.239 13.0174 36.8213 12.8516 37.4595L10.1951 47.7339C10.0119 48.444 9.9566 49.2035 10.034 49.9486C10.1113 50.6937 10.3191 51.4028 10.6397 52.0164C10.9604 52.6301 11.3847 53.1304 11.8771 53.4756C12.3695 53.8207 12.9156 54.0005 13.4697 54H30.3169C30.9061 53.9991 31.4853 53.7944 32 53.4051C32.5147 53.7944 33.0939 53.9991 33.6831 54H50.5303C51.0844 54.0005 51.6305 53.8207 52.1229 53.4756C52.6153 53.1304 53.0396 52.6301 53.3603 52.0164C53.681 51.4028 53.8887 50.6937 53.966 49.9486C54.0434 49.2035 53.9881 48.444 53.8049 47.7339Z" fill="white"/>
<path d="M30.317 51.356H13.4698C13.2267 51.3559 12.9872 51.2767 12.7713 51.125C12.5554 50.9732 12.3694 50.7535 12.2289 50.4841C12.0884 50.2147 11.9974 49.9035 11.9637 49.5766C11.93 49.2496 11.9544 48.9165 12.035 48.605L14.6915 38.3359C14.7959 37.9321 14.9902 37.5822 15.2474 37.3347C15.5046 37.0873 15.8121 36.9544 16.1273 36.9545H27.6605C27.9757 36.9544 28.2832 37.0873 28.5404 37.3347C28.7976 37.5822 28.9918 37.9321 29.0963 38.3359L31.7528 48.605C31.8334 48.9166 31.8578 49.2499 31.824 49.5769C31.7903 49.9039 31.6992 50.2152 31.5586 50.4846C31.418 50.7541 31.2319 50.9738 31.0158 51.1254C30.7998 51.277 30.5602 51.3561 30.317 51.356ZM40.4242 36.8064H23.576C23.3329 36.8063 23.0934 36.727 22.8775 36.5753C22.6616 36.4236 22.4756 36.2039 22.3351 35.9345C22.1945 35.6651 22.1036 35.3539 22.0699 35.027C22.0361 34.7 22.0606 34.3669 22.1411 34.0554L24.7967 23.785C24.9012 23.3813 25.0955 23.0316 25.3527 22.7843C25.6099 22.5371 25.9173 22.4045 26.2325 22.4049H37.7667C38.082 22.4042 38.3896 22.5367 38.647 22.784C38.9045 23.0312 39.0989 23.3811 39.2035 23.785L41.86 34.0554C41.9406 34.367 41.965 34.7003 41.9312 35.0273C41.8974 35.3543 41.8064 35.6656 41.6658 35.935C41.5252 36.2045 41.339 36.4242 41.123 36.5758C40.907 36.7274 40.6673 36.8065 40.4242 36.8064Z" fill="#FFBC00"/>
<path d="M41.859 34.0554L39.2035 23.785C39.099 23.3813 38.9047 23.0316 38.6475 22.7843C38.3902 22.5371 38.0828 22.4045 37.7677 22.4049H37.4679L38.2271 25.3397C38.4736 26.2917 38.5484 27.3101 38.4453 28.3095C38.3422 29.3089 38.0643 30.2602 37.6347 31.0836C37.2051 31.9071 36.6364 32.5787 35.9763 33.0422C35.3162 33.5056 34.5839 33.7475 33.8409 33.7474H22.221L22.1412 34.0554C22.0606 34.3669 22.0362 34.7 22.0699 35.027C22.1036 35.3539 22.1946 35.6651 22.3351 35.9345C22.4756 36.2039 22.6616 36.4236 22.8775 36.5753C23.0934 36.727 23.3329 36.8063 23.576 36.8064H40.4242C40.6673 36.8063 40.9068 36.727 41.1227 36.5753C41.3386 36.4236 41.5246 36.2039 41.6651 35.9345C41.8056 35.6651 41.8965 35.3539 41.9303 35.027C41.964 34.7 41.9396 34.3669 41.859 34.0554Z" fill="#FFA300"/>
<path d="M50.5304 51.356H33.6832C33.44 51.3561 33.2004 51.277 32.9843 51.1254C32.7683 50.9738 32.5822 50.7541 32.4416 50.4846C32.3009 50.2152 32.2099 49.9039 32.1761 49.5769C32.1423 49.2499 32.1668 48.9166 32.2474 48.605L34.9039 38.336C35.0083 37.9321 35.2026 37.5822 35.4598 37.3348C35.717 37.0873 36.0245 36.9544 36.3397 36.9545H47.8729C48.1881 36.9544 48.4956 37.0873 48.7528 37.3348C49.01 37.5822 49.2043 37.9321 49.3087 38.336L51.9652 48.605C52.0458 48.9165 52.0702 49.2496 52.0365 49.5766C52.0027 49.9035 51.9118 50.2147 51.7713 50.4841C51.6308 50.7535 51.4448 50.9733 51.2289 51.125C51.013 51.2767 50.7735 51.3559 50.5304 51.356Z" fill="#FFBC00"/>
<path d="M51.9651 48.605L49.3086 38.336C49.2041 37.9321 49.0099 37.5822 48.7527 37.3348C48.4954 37.0873 48.188 36.9544 47.8728 36.9545H47.5749L48.3352 39.8893C48.5814 40.8414 48.656 41.8599 48.5528 42.8592C48.4496 43.8586 48.1715 44.8099 47.7418 45.6332C47.3122 46.4566 46.7435 47.1282 46.0834 47.5916C45.4233 48.0551 44.691 48.297 43.9479 48.297H32.327L32.2472 48.605C32.1666 48.9166 32.1422 49.2499 32.176 49.5769C32.2098 49.9039 32.3008 50.2152 32.4414 50.4846C32.582 50.7541 32.7682 50.9738 32.9842 51.1254C33.2002 51.277 33.4399 51.3561 33.683 51.356H50.5302C50.7733 51.3559 51.0129 51.2767 51.2288 51.125C51.4447 50.9733 51.6307 50.7535 51.7712 50.4841C51.9117 50.2147 52.0026 49.9035 52.0363 49.5766C52.0701 49.2496 52.0456 48.9165 51.9651 48.605ZM31.7527 48.605L29.0962 38.336C28.9918 37.9321 28.7975 37.5822 28.5403 37.3348C28.2831 37.0873 27.9756 36.9544 27.6604 36.9545H27.3606L28.1199 39.8893C28.3663 40.8413 28.4411 41.8597 28.3381 42.8591C28.235 43.8585 27.957 44.8098 27.5274 45.6333C27.0978 46.4567 26.5292 47.1283 25.8691 47.5918C25.209 48.0552 24.4767 48.2971 23.7336 48.297H12.1147L12.0349 48.605C11.9541 48.9165 11.9295 49.2497 11.9631 49.5768C11.9967 49.9039 12.0877 50.2152 12.2282 50.4847C12.3688 50.7541 12.5549 50.9739 12.7709 51.1255C12.9869 51.2772 13.2265 51.3562 13.4697 51.356H30.3169C30.5601 51.3561 30.7997 51.277 31.0158 51.1254C31.2318 50.9738 31.4179 50.7541 31.5585 50.4846C31.6991 50.2152 31.7902 49.9039 31.8239 49.5769C31.8577 49.2499 31.8333 48.9166 31.7527 48.605Z" fill="#FFA300"/>
<path d="M18.664 51.3561L28.776 37.6168C28.6335 37.4084 28.4609 37.2421 28.269 37.1284C28.077 37.0146 27.8699 36.9559 27.6604 36.9558H25.5189L14.9124 51.3561H18.664Z" fill="url(#paint0_linear_5_167)"/>
<path d="M18.8703 36.9545L12.9791 44.9577L12.0348 48.6077C11.9362 48.9845 11.9205 49.3922 11.9897 49.7809C12.0588 50.1697 12.2098 50.5227 12.4242 50.7969L22.618 36.9545H18.8703Z" fill="url(#paint1_linear_5_167)"/>
<path d="M38.8725 51.3561L48.9884 37.6168C48.846 37.4083 48.6734 37.2419 48.4814 37.1281C48.2895 37.0144 48.0823 36.9557 47.8728 36.9558H45.7254L35.1248 51.3561H38.8725Z" fill="url(#paint2_linear_5_167)"/>
<path d="M39.0826 36.9545L33.1914 44.9577L32.2472 48.6077C32.1488 48.9846 32.1332 49.3921 32.2024 49.7808C32.2715 50.1695 32.4223 50.5225 32.6365 50.7969L42.8303 36.9545H39.0826Z" fill="url(#paint3_linear_5_167)"/>
<path d="M28.7663 36.8064L38.8822 23.0672C38.7399 22.8585 38.5673 22.692 38.3753 22.5783C38.1833 22.4645 37.9761 22.406 37.7666 22.4062H35.6251L25.0186 36.8064H28.7663Z" fill="url(#paint4_linear_5_167)"/>
<path d="M28.9765 22.4049L23.0853 30.4054L22.141 34.0554C22.0424 34.4322 22.0267 34.8399 22.0959 35.2287C22.165 35.6174 22.316 35.9704 22.5304 36.2446L32.7242 22.4049H28.9765Z" fill="url(#paint5_linear_5_167)"/>
<path d="M16.5088 27.4482L18.6387 28.2255L20.7685 27.4482L20.1962 30.3407L20.7685 33.2332L18.6387 32.4558L16.5088 33.2332L17.0812 30.3407L16.5088 27.4482Z" fill="#FFBC00"/>
<path d="M32.0001 12.6487L33.101 15.2438L35.0119 16.7389L33.101 18.2354L32.0001 20.8304L30.8991 18.2354L28.9883 16.7389L30.8991 15.2438L32.0001 12.6487Z" fill="#FFBC00"/>
<path d="M47.2478 23.0778L46.6754 25.9702L47.2478 28.8627L45.1179 28.0854L42.988 28.8627L43.5604 25.9702L42.988 23.0778L45.1179 23.8551L47.2478 23.0778Z" fill="#FFBC00"/>
<defs>
<linearGradient id="paint0_linear_5_167" x1="25.0935" y1="39.8404" x2="12.6756" y2="49.4695" gradientUnits="userSpaceOnUse">
<stop offset="0.29" stop-color="#FFCD52"/>
<stop offset="1" stop-color="#FFBC00" stop-opacity="0"/>
</linearGradient>
<linearGradient id="paint1_linear_5_167" x1="21.6669" y1="35.4223" x2="9.24904" y2="45.0515" gradientUnits="userSpaceOnUse">
<stop offset="0.29" stop-color="#FFCD52"/>
<stop offset="1" stop-color="#FFBC00" stop-opacity="0"/>
</linearGradient>
<linearGradient id="paint2_linear_5_167" x1="45.3059" y1="39.8404" x2="32.888" y2="49.4695" gradientUnits="userSpaceOnUse">
<stop offset="0.29" stop-color="#FFCD52"/>
<stop offset="1" stop-color="#FFBC00" stop-opacity="0"/>
</linearGradient>
<linearGradient id="paint3_linear_5_167" x1="41.8793" y1="35.4223" x2="29.4623" y2="45.0518" gradientUnits="userSpaceOnUse">
<stop offset="0.29" stop-color="#FFCD52"/>
<stop offset="1" stop-color="#FFBC00" stop-opacity="0"/>
</linearGradient>
<linearGradient id="paint4_linear_5_167" x1="35.1997" y1="25.2908" x2="22.7818" y2="34.9199" gradientUnits="userSpaceOnUse">
<stop offset="0.29" stop-color="#FFCD52"/>
<stop offset="1" stop-color="#FFBC00" stop-opacity="0"/>
</linearGradient>
<linearGradient id="paint5_linear_5_167" x1="31.7731" y1="20.8714" x2="19.3552" y2="30.5005" gradientUnits="userSpaceOnUse">
<stop offset="0.29" stop-color="#FFCD52"/>
<stop offset="1" stop-color="#FFBC00" stop-opacity="0"/>
</linearGradient>
</defs>
</svg>
