<svg width="865" height="435" viewBox="0 0 865 435" fill="none" xmlns="http://www.w3.org/2000/svg">
<path d="M826.088 434.331H707.658C688.266 434.331 671.907 420.01 669.213 400.807C663.654 361.192 648.387 324.693 625.891 293.792L783.861 179.018C828.162 239.885 857.031 312.703 864.725 391.726C866.946 414.552 849.022 434.331 826.088 434.331Z" fill="#9CCF40"/>
<path d="M783.861 179.018L625.891 293.792C596.529 253.433 554.837 222.621 506.355 206.881L566.706 21.144C654.779 49.742 730.508 105.71 783.861 179.018Z" fill="#9CCF40"/>
<path d="M358.551 206.88C310.069 222.625 268.382 253.437 239.02 293.791L81.0508 179.017C134.399 105.714 210.133 49.741 298.201 21.147H298.206L358.551 206.88Z" fill="#EB9632"/>
<path d="M239.019 293.791C216.524 324.692 201.256 361.191 195.697 400.806C193.002 420.009 176.643 434.33 157.252 434.33H38.8224C15.8884 434.33 -2.03557 414.551 0.186427 391.725C7.87943 312.702 36.7494 239.884 81.0504 179.017L239.019 293.791Z" fill="#EB9632"/>
<path d="M670.5 70.5L566.705 236.5C512 200 458.247 195.242 432.454 195.242C406.661 195.242 381.826 199.326 358.554 206.88C358.554 206.88 325.5 216 282 248.5L161.5 94.5C261.5 11 385.598 1.32096e-08 432.453 1.32096e-08C479.31 -0.000999987 589.5 12.5 670.5 70.5Z" fill="#EDBE00"/>
</svg>
