<svg width="64" height="64" viewBox="0 0 64 64" fill="none" xmlns="http://www.w3.org/2000/svg">
<path d="M54.1529 32.2588C54.1529 39.5818 47.7208 43.3802 41.1054 43.3802C36.9584 43.3802 32.885 41.8876 30.4214 38.9715C29.9596 38.4266 29.5586 37.833 29.2254 37.2012C28.483 35.7899 28.0579 34.1415 28.0579 32.2588C28.0736 31.2713 28.2252 30.2907 28.5085 29.3446C29.6052 25.4857 32.5157 21.2877 35.0832 19.3795C35.5489 19.0347 35.8631 18.523 35.9598 17.9517C36.0565 17.3804 35.9282 16.7938 35.6018 16.315L32.8539 12.2852C32.7248 12.096 32.6488 11.8757 32.6336 11.6472C32.6184 11.4187 32.6646 11.1903 32.7674 10.9857C32.8702 10.7811 33.026 10.6077 33.2184 10.4835C33.4108 10.3594 33.633 10.289 33.8618 10.2797L33.9704 10.2749C34.2341 10.2637 34.4947 10.3343 34.7167 10.4771L36.4624 11.5956C36.8688 11.8559 37.352 11.9696 37.8319 11.9177C38.3117 11.8658 38.7595 11.6515 39.1008 11.3103L39.9208 10.4913C40.0763 10.3356 40.261 10.2121 40.4642 10.1279C40.6675 10.0436 40.8853 10.0003 41.1054 10.0003C41.3254 10.0003 41.5433 10.0436 41.7465 10.1279C41.9498 10.2121 42.1344 10.3356 42.29 10.4913L43.1213 11.3216C43.4601 11.6605 43.9039 11.8744 44.3801 11.9283C44.8563 11.9822 45.3367 11.8729 45.7427 11.6182L47.648 10.4232C47.852 10.295 48.0881 10.2269 48.3291 10.2268C48.3575 10.2268 48.3858 10.2277 48.4141 10.2296C48.6401 10.2442 48.8583 10.3184 49.0464 10.4445C49.2344 10.5707 49.3858 10.7444 49.4851 10.9479C49.5844 11.1515 49.6281 11.3777 49.6117 11.6036C49.5953 11.8295 49.5195 12.047 49.3918 12.2341L46.608 16.315C46.2817 16.7939 46.1535 17.3806 46.2504 17.9519C46.3473 18.5232 46.6616 19.0349 47.1275 19.3795C50.3658 21.7883 54.1529 27.8407 54.1529 32.2588Z" fill="#00AE42"/>
<path d="M40.3078 11.3216C40.6466 11.6606 41.0905 11.8745 41.5667 11.9283C42.043 11.9821 42.5234 11.8726 42.9293 11.6178L43.2348 11.4262C43.196 11.3927 43.1576 11.3584 43.1208 11.3216L42.2904 10.4914C42.1349 10.3356 41.9502 10.212 41.7468 10.1277C41.5435 10.0434 41.3255 10 41.1054 10C40.8852 10 40.6673 10.0434 40.4639 10.1277C40.2606 10.212 40.0759 10.3356 39.9203 10.4914L39.6989 10.7128L40.3078 11.3216ZM47.1271 19.3794C46.6615 19.0346 46.3474 18.5231 46.2506 17.9519C46.1537 17.3808 46.2816 16.7943 46.6075 16.3154L49.3917 12.2338C49.5193 12.0467 49.5951 11.8293 49.6115 11.6034C49.6279 11.3776 49.5843 11.1515 49.485 10.948C49.3857 10.7445 49.2344 10.5708 49.0463 10.4447C48.8583 10.3186 48.6402 10.2446 48.4142 10.23C48.3862 10.2278 48.357 10.2266 48.329 10.2266C48.088 10.227 47.852 10.295 47.6478 10.423L46.7025 11.0157C46.7862 11.2127 46.8187 11.4277 46.7971 11.6407C46.7754 11.8536 46.7003 12.0576 46.5786 12.2338L43.7945 16.3154C43.4686 16.7943 43.3407 17.3808 43.4375 17.9519C43.5344 18.5231 43.8485 19.0346 44.3141 19.3794C47.5527 21.7881 51.3401 27.841 51.3401 32.2591C51.3401 39.0603 45.7914 42.8201 39.7009 43.3213C40.1667 43.3596 40.6349 43.379 41.1054 43.3797C47.7208 43.3797 54.1532 39.582 54.1532 32.2591C54.1532 27.841 50.3658 21.7881 47.1271 19.3794ZM33.6498 11.5954C34.0344 11.8415 34.4883 11.9566 34.9438 11.9236C35.3992 11.8906 35.8318 11.7112 36.1769 11.4122L34.7167 10.4768C34.4947 10.3343 34.2341 10.2637 33.9704 10.2749L33.8616 10.2794C33.6261 10.2878 33.3976 10.3615 33.2016 10.4923C33.0056 10.6231 32.8497 10.8057 32.7515 11.0199L33.6498 11.5954Z" fill="#00AE42"/>
<path d="M23.3705 50.4872C22.8368 50.3696 22.2835 50.3726 21.7511 50.4962L19.4984 51.019L19.3669 51.7025L24.0027 50.6265L23.3705 50.4872Z" fill="#F9BD81"/>
<path d="M19.3669 51.3249L24.5642 50.1187C25.0966 49.9951 25.6498 49.992 26.1836 50.1097L38.7367 52.8762C39.4705 53.0379 40.2301 53.0433 40.9662 52.8921C41.7023 52.7409 42.3983 52.4364 43.0089 51.9985L54.8998 43.4712C55.2049 43.2523 55.4498 42.9599 55.6115 42.621C55.7733 42.2821 55.8467 41.9078 55.8249 41.5329C55.8055 41.1966 55.7099 40.8691 55.5455 40.5751C55.3811 40.281 55.1521 40.0282 54.8758 39.8355C54.5994 39.6428 54.283 39.5154 53.9502 39.4628C53.6175 39.4102 53.2772 39.4338 52.9549 39.5318L36.3579 44.5819L21.5891 39.7761L19.3669 51.3249Z" fill="#FFD9AE"/>
<path d="M55.6588 40.8069C55.522 40.9906 55.3577 41.1521 55.1717 41.2857L43.2808 49.813C42.6702 50.2509 41.9742 50.5554 41.2381 50.7066C40.5021 50.8578 39.7424 50.8524 39.0086 50.6907L26.4555 47.9242C25.9218 47.8066 25.3685 47.8096 24.8361 47.9332L19.7944 49.1033L19.3669 51.3249L24.5642 50.1187C25.0966 49.9951 25.6498 49.992 26.1836 50.1097L38.7366 52.8762C39.4705 53.0379 40.2301 53.0433 40.9662 52.8921C41.7023 52.7409 42.3983 52.4364 43.0089 51.9985L54.8998 43.4712C55.3082 43.1778 55.6055 42.7549 55.7433 42.2712C55.8811 41.7876 55.8513 41.2715 55.6588 40.8069Z" fill="#DBA66C"/>
<path d="M41.3021 44.1722C41.3022 44.3628 41.2786 44.5527 41.2318 44.7375C41.0865 45.3213 40.7223 45.827 40.2146 46.1498C39.7068 46.4726 39.0944 46.5879 38.5041 46.4718L34.4374 45.555L18.3346 40.758L25.7235 38.5353C28.0719 37.8284 30.5948 37.9766 32.8443 38.9534L39.89 42.0151C40.1988 42.1492 40.475 42.3483 40.6999 42.5987C40.9248 42.8492 41.0931 43.1452 41.1933 43.4665L41.1934 43.4663L41.1942 43.4695C41.2096 43.519 41.2234 43.569 41.2356 43.6196C41.2372 43.6261 41.2391 43.6327 41.2406 43.6393C41.2532 43.694 41.2644 43.749 41.2731 43.8047C41.2739 43.812 41.2751 43.8192 41.2768 43.8263C41.2845 43.8732 41.2898 43.9204 41.2928 43.9678C41.2993 44.0353 41.3021 44.1038 41.3021 44.1722Z" fill="#FFD9AE"/>
<path d="M41.3021 44.1722C41.3022 44.3628 41.2786 44.5527 41.2318 44.7375C41.0865 45.3213 40.7223 45.827 40.2146 46.1498C39.7068 46.4726 39.0944 46.5879 38.5041 46.4718L34.4374 45.555C34.4375 45.3862 34.4755 45.2197 34.5487 45.0677C34.6219 44.9156 34.7284 44.782 34.8602 44.6767C34.992 44.5713 35.1458 44.497 35.3103 44.4592C35.4747 44.4214 35.6456 44.421 35.8101 44.4581L38.4394 45.0515C39.0136 45.1809 39.6155 45.0898 40.1256 44.7961C40.6357 44.5025 41.0169 44.0278 41.1934 43.4663C41.2284 43.5769 41.2551 43.6901 41.2731 43.8047C41.2739 43.812 41.2751 43.8192 41.2768 43.8263C41.2834 43.8732 41.289 43.921 41.2928 43.9678C41.2993 44.0353 41.3021 44.1038 41.3021 44.1722Z" fill="#FBBF7D"/>
<path d="M8.17114 38.7165L16.272 38.1713L21.9793 37.719C22.1885 37.7024 22.3989 37.7272 22.5985 37.792C22.7982 37.8568 22.9831 37.9603 23.1427 38.0965C23.3023 38.2328 23.4335 38.3991 23.5289 38.5861C23.6242 38.7731 23.6817 38.977 23.6983 39.1862L24.6768 51.144C24.7103 51.5665 24.5746 51.985 24.2996 52.3075C24.0245 52.63 23.6326 52.83 23.2101 52.8635L17.5028 53.3159L8.17114 54" fill="#2370B5"/>
<path d="M23.2101 52.8635L17.5028 53.3159L16.272 38.1713L21.9793 37.719C22.1885 37.7024 22.3989 37.7272 22.5985 37.792C22.7982 37.8568 22.9831 37.9603 23.1427 38.0965C23.3023 38.2328 23.4335 38.3991 23.5288 38.5861C23.6242 38.7731 23.6817 38.977 23.6983 39.1862L24.6768 51.144C24.7103 51.5665 24.5746 51.985 24.2996 52.3075C24.0245 52.63 23.6326 52.83 23.2101 52.8635Z" fill="#1067AE"/>
<path d="M41.1054 38.291C45.1836 38.291 48.4897 34.9857 48.4897 30.9085C48.4897 26.8312 45.1836 23.5259 41.1054 23.5259C37.0272 23.5259 33.7212 26.8312 33.7212 30.9085C33.7212 34.9857 37.0272 38.291 41.1054 38.291Z" fill="#FED947"/>
<path d="M41.1055 23.5259C40.6334 23.5262 40.1624 23.5716 39.699 23.6613C41.3818 23.9874 42.8987 24.8889 43.9894 26.2113C45.0802 27.5336 45.6767 29.1943 45.6767 30.9084C45.6767 32.6226 45.0802 34.2833 43.9894 35.6056C42.8987 36.9279 41.3818 37.8295 39.699 38.1555C40.7093 38.3518 41.7495 38.3347 42.7528 38.1053C43.7561 37.8759 44.7004 37.4392 45.525 36.8233C46.3496 36.2075 47.0363 35.426 47.541 34.529C48.0457 33.6321 48.3574 32.6395 48.4559 31.615C48.5544 30.5905 48.4376 29.5568 48.1129 28.5801C47.7883 27.6034 47.2631 26.7054 46.571 25.9437C45.8788 25.182 45.035 24.5734 44.0938 24.157C43.1526 23.7407 42.1347 23.5257 41.1055 23.5259Z" fill="#FFD658"/>
<path d="M41.1054 38.994C39.5063 38.9936 37.9432 38.5191 36.6138 37.6304C35.2844 36.7417 34.2483 35.4788 33.6367 34.0013C33.025 32.5238 32.8651 30.8981 33.1773 29.3298C33.4895 27.7615 34.2598 26.321 35.3906 25.1904C36.5215 24.0598 37.9622 23.2899 39.5306 22.9781C41.099 22.6662 42.7246 22.8265 44.202 23.4385C45.6793 24.0505 46.942 25.0869 47.8303 26.4165C48.7187 27.7461 49.1929 29.3093 49.1929 30.9084C49.1902 33.0524 48.3372 35.1077 46.821 36.6235C45.3049 38.1393 43.2493 38.9918 41.1054 38.994ZM41.1054 24.229C39.7844 24.2294 38.4932 24.6214 37.3949 25.3555C36.2967 26.0896 35.4409 27.1329 34.9356 28.3534C34.4303 29.574 34.2982 30.9169 34.5561 32.2125C34.814 33.508 35.4503 34.6981 36.3845 35.632C37.3187 36.566 38.5088 37.202 39.8045 37.4596C41.1001 37.7172 42.443 37.5848 43.6634 37.0792C44.8838 36.5736 45.9269 35.7175 46.6608 34.6191C47.3947 33.5207 47.7864 32.2294 47.7864 30.9084C47.7841 29.1373 47.0795 27.4395 45.827 26.1873C44.5745 24.9351 42.8765 24.2308 41.1054 24.229Z" fill="#F8BE32"/>
<path d="M43.1503 28.1961H39.0604C38.968 28.1962 38.8764 28.1781 38.791 28.1428C38.7056 28.1075 38.628 28.0558 38.5627 27.9905C38.4973 27.9252 38.4454 27.8476 38.41 27.7623C38.3747 27.6769 38.3564 27.5854 38.3564 27.493C38.3564 27.4006 38.3747 27.3091 38.41 27.2238C38.4454 27.1384 38.4973 27.0609 38.5627 26.9956C38.628 26.9303 38.7056 26.8785 38.791 26.8432C38.8764 26.8079 38.968 26.7898 39.0604 26.7899H43.1503C43.2427 26.7898 43.3343 26.8079 43.4197 26.8432C43.5051 26.8785 43.5827 26.9303 43.648 26.9956C43.7134 27.0609 43.7653 27.1384 43.8007 27.2238C43.836 27.3091 43.8543 27.4006 43.8543 27.493C43.8543 27.5854 43.836 27.6769 43.8007 27.7623C43.7653 27.8476 43.7134 27.9252 43.648 27.9905C43.5827 28.0558 43.5051 28.1075 43.4197 28.1428C43.3343 28.1781 43.2427 28.1962 43.1503 28.1961ZM43.1503 30.4265H39.0604C38.968 30.4266 38.8764 30.4085 38.791 30.3732C38.7056 30.3379 38.628 30.2862 38.5627 30.2209C38.4973 30.1556 38.4454 30.078 38.41 29.9927C38.3747 29.9073 38.3564 29.8158 38.3564 29.7234C38.3564 29.631 38.3747 29.5395 38.41 29.4542C38.4454 29.3688 38.4973 29.2913 38.5627 29.226C38.628 29.1607 38.7056 29.1089 38.791 29.0736C38.8764 29.0383 38.968 29.0202 39.0604 29.0203H43.1503C43.2427 29.0202 43.3343 29.0383 43.4197 29.0736C43.5051 29.1089 43.5827 29.1607 43.648 29.226C43.7134 29.2913 43.7653 29.3688 43.8007 29.4542C43.836 29.5395 43.8543 29.631 43.8543 29.7234C43.8543 29.8158 43.836 29.9073 43.8007 29.9927C43.7653 30.078 43.7134 30.1556 43.648 30.2209C43.5827 30.2862 43.5051 30.3379 43.4197 30.3732C43.3343 30.4085 43.2427 30.4266 43.1503 30.4265Z" fill="white"/>
<path d="M42.035 35.7704C41.9399 35.7705 41.8458 35.7513 41.7583 35.7139C41.6709 35.6765 41.592 35.6218 41.5263 35.553L38.5518 32.4395C38.4567 32.3399 38.3929 32.2146 38.3684 32.0791C38.3439 31.9436 38.3596 31.8039 38.4138 31.6773C38.468 31.5507 38.5581 31.4428 38.673 31.3669C38.788 31.2911 38.9227 31.2507 39.0604 31.2507H39.804C40.0047 31.2509 40.2034 31.2115 40.3888 31.1348C40.5743 31.0581 40.7428 30.9456 40.8847 30.8038C41.0267 30.662 41.1393 30.4935 41.2161 30.3082C41.293 30.1228 41.3325 29.9241 41.3325 29.7234C41.3325 29.5227 41.293 29.324 41.2161 29.1387C41.1393 28.9533 41.0267 28.7849 40.8847 28.643C40.7428 28.5012 40.5743 28.3887 40.3888 28.312C40.2034 28.2353 40.0047 28.196 39.804 28.1961H39.0604C38.968 28.1962 38.8764 28.1781 38.791 28.1428C38.7056 28.1075 38.628 28.0558 38.5627 27.9905C38.4973 27.9252 38.4454 27.8476 38.41 27.7623C38.3747 27.6769 38.3564 27.5854 38.3564 27.493C38.3564 27.4006 38.3747 27.3091 38.41 27.2238C38.4454 27.1384 38.4973 27.0609 38.5627 26.9956C38.628 26.9303 38.7056 26.8785 38.791 26.8432C38.8764 26.8079 38.968 26.7898 39.0604 26.7899H39.804C40.5125 26.7898 41.1972 27.0461 41.7315 27.5115C42.2657 27.9769 42.6135 28.6199 42.7105 29.3218C42.8075 30.0237 42.6472 30.737 42.2593 31.3298C41.8713 31.9227 41.2818 32.3552 40.5998 32.5472L42.5434 34.5816C42.6385 34.6812 42.7023 34.8065 42.7269 34.942C42.7514 35.0775 42.7356 35.2172 42.6815 35.3438C42.6273 35.4704 42.5372 35.5783 42.4223 35.6541C42.3073 35.73 42.1727 35.7704 42.035 35.7704Z" fill="white"/>
<path d="M46.506 18.6748C46.4899 18.6804 46.4739 18.6861 46.4569 18.6908C44.6752 19.2009 42.8311 19.4597 40.9779 19.4598H40.9713C39.207 19.4592 37.4506 19.2241 35.7483 18.7607C35.7212 18.7536 35.6947 18.7444 35.6689 18.7333C35.9145 18.3272 36.0244 17.8534 35.9826 17.3806C36.0283 17.3835 36.0735 17.3911 36.1177 17.4033C37.6995 17.8345 39.3317 18.0534 40.9713 18.0541H40.9779C42.7001 18.0539 44.4139 17.8132 46.0695 17.339C46.123 17.3233 46.1782 17.3144 46.2339 17.3126C46.4013 17.3057 46.5656 17.3589 46.6973 17.4624C46.8289 17.566 46.9193 17.7131 46.9521 17.8774C46.9849 18.0417 46.958 18.2122 46.8762 18.3584C46.7944 18.5046 46.6631 18.6168 46.506 18.6748Z" fill="#005CB9"/>
<path d="M46.2622 18.7182C46.1328 18.718 46.006 18.6822 45.8956 18.6146C45.7852 18.547 45.6957 18.4503 45.6368 18.335C45.5779 18.2198 45.5519 18.0905 45.5617 17.9615C45.5716 17.8325 45.6168 17.7086 45.6925 17.6037C45.8991 17.3173 47.7979 14.8139 50.8073 14.9939C51.8393 15.0646 52.8304 15.4253 53.6664 16.0344C53.818 16.143 53.9202 16.3074 53.9507 16.4914C53.9811 16.6754 53.9372 16.8639 53.8286 17.0155C53.72 17.1671 53.5556 17.2694 53.3716 17.2998C53.1876 17.3302 52.9991 17.2863 52.8475 17.1777C52.226 16.724 51.4898 16.4537 50.7224 16.3975C48.426 16.2597 46.8971 18.3378 46.8332 18.4263C46.768 18.5168 46.6822 18.5904 46.5829 18.6412C46.4837 18.6919 46.3737 18.7183 46.2622 18.7182Z" fill="#005CB9"/>
<path d="M52.8805 20.7467C52.7778 20.7469 52.6763 20.7245 52.5831 20.6811C52.49 20.6377 52.4075 20.5744 52.3415 20.4957C51.7493 19.7887 50.994 19.2363 50.1408 18.886C48.9648 18.4206 47.6689 18.3527 46.4507 18.6925C46.3617 18.7174 46.2686 18.7244 46.1768 18.7132C46.0851 18.7021 45.9964 18.6729 45.916 18.6275C45.8355 18.582 45.7648 18.5211 45.7079 18.4483C45.6509 18.3755 45.6089 18.2921 45.5843 18.2031C45.5596 18.114 45.5527 18.0209 45.564 17.9292C45.5753 17.8375 45.6046 17.7489 45.6502 17.6685C45.6958 17.5881 45.7568 17.5174 45.8297 17.4606C45.9026 17.4038 45.986 17.362 46.0752 17.3374C47.5925 16.9155 49.2063 17.0017 50.67 17.5831C51.7358 18.0194 52.6792 18.7088 53.4188 19.5915C53.5048 19.694 53.5598 19.819 53.5773 19.9517C53.5948 20.0843 53.5741 20.2193 53.5176 20.3406C53.4611 20.4619 53.3711 20.5645 53.2582 20.6365C53.1454 20.7084 53.0144 20.7467 52.8805 20.7467Z" fill="#005CB9"/>
</svg>
