 <svg id="Group_3813" data-name="Group 3813" xmlns="http://www.w3.org/2000/svg"
                                    xmlns:xlink="http://www.w3.org/1999/xlink" width="30.054" height="40.84"
                                    viewBox="0 0 35.054 56.84">
                                    <defs>
                                        <clipPath id="clip-path">
                                            <rect id="Rectangle_2136" data-name="Rectangle 2136" width="35.054"
                                                height="56.84" fill="none" />
                                        </clipPath>
                                    </defs>
                                    <g id="Group_3729" data-name="Group 3729" clip-path="url(#clip-path)">
                                        <path id="Path_4479" data-name="Path 4479"
                                            d="M23.934,117.383A15.934,15.934,0,1,1,8,133.317a15.934,15.934,0,0,1,15.934-15.934"
                                            transform="translate(-6.407 -94.004)" fill="#ffd33a" />
                                        <path id="Path_4480" data-name="Path 4480"
                                            d="M17.527,109.383A17.527,17.527,0,1,0,35.054,126.91a17.527,17.527,0,0,0-17.527-17.527m0,31.867a14.34,14.34,0,1,1,14.34-14.34,14.34,14.34,0,0,1-14.34,14.34"
                                            transform="translate(0 -87.597)" fill="#ffb632" />
                                        <path id="Path_4481" data-name="Path 4481"
                                            d="M59.414,160.089H70.648c.064.008.1.04.1.095v1.069a.084.084,0,0,1-.1.1H66.421v.1a3.31,3.31,0,0,1,1.4,2l.048.344h2.779q.1.012.1.095v1.069a.084.084,0,0,1-.1.1H67.977q0,1.793-2.2,3.491a6.911,6.911,0,0,1-2.767,1.116c0,.032-.032.047-.1.047l6.033,7.814v.1H66.658q-.036,0-6.995-9.073v-.048h.724q3.848,0,4.62-2.767a4.025,4.025,0,0,0,.047-.534v-.143H59.414a.084.084,0,0,1-.1-.1v-1.069q.012-.095.1-.095h5.594a3.105,3.105,0,0,0-1.211-1.758,5.087,5.087,0,0,0-2.34-.677H59.414a.084.084,0,0,1-.1-.1v-1.069q.012-.1.1-.095"
                                            transform="translate(-47.504 -128.204)" fill="#ffb632" />
                                        <path id="Path_4482" data-name="Path 4482"
                                            d="M30.036,58.178a1.1,1.1,0,0,1-1.1-1.1v-8.81a1.1,1.1,0,0,1,2.191,0v8.81a1.1,1.1,0,0,1-1.1,1.1"
                                            transform="translate(-23.177 -37.781)" fill="#ffb632" />
                                        <path id="Path_4483" data-name="Path 4483"
                                            d="M137.154,58.178a1.1,1.1,0,0,1-1.1-1.1v-8.81a1.1,1.1,0,0,1,2.191,0v8.81a1.1,1.1,0,0,1-1.1,1.1"
                                            transform="translate(-108.96 -37.781)" fill="#ffb632" />
                                        <path id="Path_4484" data-name="Path 4484"
                                            d="M83.6,18.617a1.1,1.1,0,0,1-1.1-1.1V1.1a1.1,1.1,0,1,1,2.191,0V17.521a1.1,1.1,0,0,1-1.1,1.1"
                                            transform="translate(-66.068)" fill="#ffb632" />
                                    </g>
                                </svg>