<svg xmlns="http://www.w3.org/2000/svg" version="1.1" xmlns:xlink="http://www.w3.org/1999/xlink" width="512" height="512" x="0" y="0" viewBox="0 0 512 512" style="enable-background:new 0 0 512 512" xml:space="preserve" class=""><g><path fill="#005cb9" d="m271.231 451.133-17.902-17.908c-11.854-11.858-11.851-31.081.007-42.935l134.325-134.285-134.327-134.287c-11.858-11.855-11.861-31.078-.006-42.936l17.905-17.91c11.855-11.858 31.077-11.86 42.935-.006l173.718 173.667c11.861 11.857 11.86 31.085 0 42.942L314.167 451.14c-11.859 11.854-31.082 11.851-42.936-.007z" opacity="0.8784313725490196" data-original="#c9def7" class=""></path><path fill="#005cb9" d="m42.018 451.133-17.902-17.908c-11.854-11.858-11.851-31.081.007-42.935l134.325-134.285L24.121 121.718c-11.858-11.855-11.861-31.078-.006-42.936l17.905-17.91c11.855-11.858 31.077-11.86 42.935-.006l173.718 173.667c11.861 11.857 11.86 31.085 0 42.942L84.953 451.14c-11.858 11.854-31.081 11.851-42.935-.007z" opacity="0.6313725490196078" data-original="#ffffff" class=""></path><g fill="#0c76f0"><path d="M319.661 55.376c-14.895-14.895-39.018-14.904-53.918.004l-17.908 17.912c-14.863 14.867-14.859 39.055.008 53.918l128.831 128.793-128.832 128.793c-14.867 14.867-14.87 39.055-.004 53.918l17.901 17.908c14.88 14.887 39.014 14.911 53.918.008l173.719-173.662c7.206-7.202 11.173-16.778 11.173-26.965s-3.967-19.763-11.173-26.961zm162.732 216.609L308.674 445.647c-9.061 9.061-23.324 8.62-31.952-.008l-17.901-17.908c-8.806-8.81-8.806-23.142.004-31.952l134.326-134.285a7.767 7.767 0 0 0 0-10.984L258.826 116.227c-8.81-8.81-8.814-23.142-.008-31.952l17.908-17.912c8.533-8.533 23.419-8.537 31.952-.004l173.715 173.67a22.435 22.435 0 0 1 6.622 15.974c0 6.038-2.351 11.711-6.622 15.982z" fill="#005cb9" opacity="1" data-original="#0c76f0" class=""></path><path d="M275.334 256.003c0-10.187-3.967-19.763-11.169-26.961L90.446 55.376c-14.866-14.855-39.051-14.859-53.918.004L18.624 73.292c-14.867 14.863-14.863 39.051.004 53.918l128.831 128.793L18.632 384.796c-14.901 14.893-14.911 39.014-.008 53.918l17.901 17.908c14.879 14.887 39.018 14.911 53.922.008l173.719-173.662c7.201-7.202 11.168-16.778 11.168-26.965zm-22.152 15.982L79.463 445.647c-8.799 8.799-23.101 8.847-31.956-.008l-17.901-17.908c-8.807-8.807-8.847-23.097.008-31.952l134.323-134.285a7.768 7.768 0 0 0 0-10.984L29.611 116.227c-8.81-8.81-8.81-23.142-.004-31.952l17.904-17.912c8.814-8.799 23.146-8.81 31.952-.004l173.719 173.666a22.453 22.453 0 0 1 6.618 15.978c0 6.038-2.351 11.711-6.618 15.982z" fill="#005cb9" opacity="1" data-original="#0c76f0" class=""></path></g></g></svg>