<svg width="172" height="181" viewBox="0 0 172 181" fill="none" xmlns="http://www.w3.org/2000/svg">
<path fill-rule="evenodd" clip-rule="evenodd" d="M68.953 48.2422C46.7583 58.1577 36.3778 85.1896 45.7711 108.621C55.1635 132.053 80.7717 143.006 102.966 133.091C125.162 123.175 135.542 96.1434 126.148 72.7214C116.757 49.2899 91.1486 38.3362 68.953 48.2422ZM45.8658 32.1925L40.3481 11.6852L64.0091 1.11249L74.1098 19.5719C81.822 17.9812 89.5686 17.7431 97.0651 18.7242L106.616 0.769577L130.427 10.9613L125.788 29.4874C132.845 34.1737 139.09 40.2126 144.107 47.4611L160.785 42.5176L170.799 67.5017L155.825 76.6934C157.262 85.5421 157.026 94.486 155.296 103.097L171.123 112.479L161.473 137.606L142.613 132.348C138.065 138.711 132.51 144.416 126.055 149.15L131.574 169.657L107.912 180.23L97.8132 161.771C90.0991 163.361 82.3535 163.599 74.856 162.609L65.3048 180.563L41.4941 170.381L46.1347 151.855C39.0749 147.169 32.8317 141.13 27.8156 133.872L11.136 138.815L1.12368 113.841L16.0979 104.649C14.6605 95.8005 14.896 86.8565 16.6249 78.2459L0.798828 68.8638L10.4484 43.7273L29.3098 48.9946C33.854 42.6224 39.4133 36.9265 45.8658 32.1925Z" fill="url(#paint0_linear_1388_79)"/>
<defs>
<linearGradient id="paint0_linear_1388_79" x1="85.1905" y1="47.9755" x2="86.8956" y2="132.682" gradientUnits="userSpaceOnUse">
<stop stop-color="#23AA56"/>
<stop offset="1" stop-color="#378D58"/>
</linearGradient>
</defs>
</svg>
