<svg width="220" height="232" viewBox="0 0 220 232" fill="none" xmlns="http://www.w3.org/2000/svg">
<path fill-rule="evenodd" clip-rule="evenodd" d="M79.9321 68.6536C54.9284 86.4082 48.2927 122.203 65.1104 148.597C81.929 174.991 115.833 181.992 140.837 164.237C165.841 146.482 172.477 110.697 155.66 84.3032C138.842 57.9094 104.938 50.9085 79.9321 68.6536ZM47.9706 54.7566L36.5696 30.9822L63.2236 12.056L79.7868 32.1633C88.8941 28.2676 98.3487 26.0292 107.772 25.353L115.443 0.911792L146.967 7.42688L145.454 31.3251C155.176 35.3066 164.205 41.1549 171.998 48.794L191.354 38.526L209.284 66.6629L192.98 81.7219C196.742 92.2184 198.471 103.248 198.294 114.25L219.837 121.784L213.666 155.064L189.329 153.35C185.187 162.313 179.654 170.704 172.802 178.143L184.203 201.918L157.548 220.844L140.985 200.737C131.878 204.632 122.424 206.871 113 207.547L105.328 231.988L73.8053 225.473L75.3176 201.565C65.5931 197.594 56.5662 191.745 48.7736 184.106L29.4177 194.374L11.4883 166.237L27.7917 151.178C24.0299 140.682 22.301 129.652 22.4778 118.641L0.935547 111.107L7.10657 77.8357L31.4434 79.5502C35.5842 70.5872 41.1182 62.1861 47.9706 54.7566Z" fill="url(#paint0_linear_1388_77)"/>
<defs>
<linearGradient id="paint0_linear_1388_77" x1="73.0121" y1="74.9782" x2="167.223" y2="168.793" gradientUnits="userSpaceOnUse">
<stop stop-color="#005CB9"/>
<stop offset="1" stop-color="#457CB3"/>
</linearGradient>
</defs>
</svg>
