<svg width="64" height="64" viewBox="0 0 64 64" fill="none" xmlns="http://www.w3.org/2000/svg">
<path opacity="0.5" d="M30.4768 64C47.3087 64 60.9536 50.3553 60.9536 33.5238C60.9536 16.6923 47.3087 3.04761 30.4768 3.04761C13.6449 3.04761 0 16.6923 0 33.5238C0 50.3553 13.6449 64 30.4768 64Z" fill="#00AE42" fill-opacity="0.8"/>
<path d="M36.347 40.5388C37.0937 39.9564 37.7709 39.2792 39.1253 37.9249L56.0103 21.04C56.4187 20.6318 56.2319 19.9287 55.6864 19.7394C53.6935 19.048 51.1005 17.7498 48.6755 15.3245C46.2502 12.8993 44.9518 10.3066 44.2603 8.31354C44.0711 7.76814 43.368 7.58129 42.9599 7.98951L26.0745 24.8744C24.7201 26.2288 24.0429 26.906 23.4605 27.6529C22.7734 28.5336 22.1844 29.4866 21.7038 30.4951C21.2964 31.3499 20.9936 32.2584 20.3878 34.0754L19.6052 36.4236L18.3606 40.1569L17.1937 43.6577C16.8956 44.5519 17.1284 45.5378 17.7949 46.2043C18.4614 46.8709 19.4473 47.1037 20.3416 46.8056L23.8423 45.6387L27.5758 44.3941L29.924 43.6114C31.7411 43.0059 32.6496 42.7029 33.5045 42.2955C34.5129 41.8149 35.4659 41.2261 36.347 40.5388Z" fill="#1C355E"/>
<path d="M61.2972 15.7533C64.9011 12.1495 64.9011 6.30662 61.2972 2.70284C57.6933 -0.900947 51.8503 -0.900947 48.2467 2.70284L47.7036 3.24568C47.18 3.76951 46.9426 4.50118 47.0734 5.23032C47.1557 5.68899 47.3084 6.35959 47.586 7.15977C48.1413 8.76004 49.1897 10.8607 51.1646 12.8355C53.1392 14.8102 55.2399 15.8587 56.8403 16.4139C57.6406 16.6915 58.3111 16.8441 58.7698 16.9264C59.4991 17.0573 60.2305 16.82 60.7544 16.2961L61.2972 15.7533Z" fill="#1C355E"/>
</svg>
