<svg width="64" height="64" viewBox="0 0 64 64" fill="none" xmlns="http://www.w3.org/2000/svg">
<g clip-path="url(#clip0_3_18)">
<path d="M19.7694 53.1406H12.475V42.1406L16.1737 39.6725L19.7694 42.1406V53.1406Z" fill="#00AE42" fill-opacity="0.5"/>
<path d="M31.0788 53.1406H23.9357V32.99L27.6069 30.3706L31.0788 32.99V53.1406Z" fill="#00AE42" fill-opacity="0.65"/>
<path d="M42.5875 53.1338H35.3481V29.3737L38.9919 26.8781L42.5875 29.3737V53.1338Z" fill="#00AE42" fill-opacity="0.8"/>
<path d="M54 53.12H46.7538V24.74L50.4525 22.1481L54 24.74V53.12Z" fill="#00AE42"/>
<path d="M42.175 10.8594V12.6125H45.5438L38.0225 19.7419L33.8356 15.3556L24.2587 24.7194L19.7831 20.34L10 29.9031L11.0587 30.9412L19.7831 22.4025L24.2587 26.7819L33.7944 17.4594L37.9675 21.8319L46.6575 13.5956V16.7031H48.445V10.8594H42.175Z" fill="#005CB9"/>
</g>
<defs>
<clipPath id="clip0_3_18">
<rect width="44" height="44" fill="white" transform="translate(10 10)"/>
</clipPath>
</defs>
</svg>
