<svg width="64" height="64" viewBox="0 0 64 64" fill="none" xmlns="http://www.w3.org/2000/svg">
<path opacity="0.5" d="M0 32C0 16.915 -3.8147e-07 9.37258 4.6863 4.6863C9.37258 -3.8147e-07 16.915 0 32 0C47.0848 0 54.6275 -3.8147e-07 59.3136 4.6863C64 9.37258 64 16.915 64 32C64 47.0848 64 54.6275 59.3136 59.3136C54.6275 64 47.0848 64 32 64C16.915 64 9.37258 64 4.6863 59.3136C-3.8147e-07 54.6275 0 47.0848 0 32Z" fill="#00AE42" fill-opacity="0.8"/>
<path d="M19.2 18.4C17.8746 18.4 16.8 17.3255 16.8 16C16.8 14.6745 17.8746 13.6 19.2 13.6H44.8C46.1255 13.6 47.2 14.6745 47.2 16C47.2 17.3255 46.1255 18.4 44.8 18.4H19.2Z" fill="#1C355E"/>
<path d="M34.4 48C34.4 49.3255 33.3254 50.4 32 50.4C30.6746 50.4 29.6 49.3255 29.6 48V31.3943L24.097 36.897C23.1598 37.8343 21.6402 37.8343 20.7029 36.897C19.7657 35.9597 19.7657 34.4403 20.7029 33.5031L30.303 23.903C30.753 23.4529 31.3635 23.2 32 23.2C32.6365 23.2 33.247 23.4529 33.697 23.903L43.297 33.5031C44.2342 34.4403 44.2342 35.9597 43.297 36.897C42.3597 37.8343 40.8403 37.8343 39.903 36.897L34.4 31.3943V48Z" fill="#1C355E"/>
</svg>
