<svg width="837" height="837" viewBox="0 0 837 837" fill="none" xmlns="http://www.w3.org/2000/svg">
<path d="M836.02 418.01C836.02 530.201 791.819 632.07 719.883 707.15C643.798 786.572 536.677 836.02 418.01 836.02C299.343 836.02 192.222 786.572 116.137 707.15C44.201 632.069 0 530.201 0 418.01C0 187.152 187.152 0 418.01 0C648.868 0 836.02 187.152 836.02 418.01Z" fill="#E7E7E7"/>
<path d="M418.01 440.443C512.323 440.443 588.778 363.988 588.778 269.675C588.778 175.363 512.323 98.9072 418.01 98.9072C323.698 98.9072 247.242 175.363 247.242 269.675C247.242 363.988 323.698 440.443 418.01 440.443Z" fill="#B0B6B7"/>
<path d="M705.719 672.59C702.372 676.374 698.946 680.096 695.448 683.746C625.521 756.739 527.073 802.184 418.01 802.184C308.947 802.184 210.499 756.739 140.572 683.746C137.074 680.097 133.649 676.375 130.301 672.59C130.301 554.326 198.888 491.575 418.01 491.575C645.245 491.576 705.719 564.804 705.719 672.59Z" fill="#B0B6B7"/>
</svg>
