<svg width="64" height="64" viewBox="0 0 64 64" fill="none" xmlns="http://www.w3.org/2000/svg">
<path opacity="0.6" d="M21.1064 27.6014H10.2128V49.2857H21.1064V27.6014Z" fill="#00AE42" fill-opacity="0.65"/>
<path opacity="0.4" d="M31.9999 27.6014H21.1063V49.2857H31.9999V27.6014Z" fill="#00AE42" fill-opacity="0.5"/>
<path opacity="0.6" d="M42.8936 27.6014H32V49.2857H42.8936V27.6014Z" fill="#00AE42" fill-opacity="0.65"/>
<path opacity="0.4" d="M53.7872 27.6014H42.8936V49.2857H53.7872V27.6014Z" fill="#00AE42" fill-opacity="0.5"/>
<path d="M59.2341 52.3834V61.6767H4.76599V52.3834C4.76599 50.6797 5.99152 49.2857 7.4894 49.2857H56.5107C58.0085 49.2857 59.2341 50.6797 59.2341 52.3834Z" fill="#1C355E" stroke="#1C355E" stroke-width="3.75" stroke-miterlimit="10" stroke-linecap="round" stroke-linejoin="round"/>
<path d="M61.9574 64H2.04255C0.925957 64 0 62.9468 0 61.6767C0 60.4066 0.925957 59.3534 2.04255 59.3534H61.9574C63.074 59.3534 64 60.4066 64 61.6767C64 62.9468 63.074 64 61.9574 64Z" fill="#1C355E"/>
<path d="M57.5183 11.3377L33.0077 0.185865C32.463 -0.061955 31.5371 -0.061955 30.9924 0.185865L6.48174 11.3377C5.52854 11.7714 4.76599 13.0414 4.76599 14.2186V24.5031C4.76599 26.2068 5.99152 27.6008 7.4894 27.6008H56.5107C58.0085 27.6008 59.2341 26.2068 59.2341 24.5031V14.2186C59.2341 13.0414 58.4715 11.7714 57.5183 11.3377ZM32 19.8565C29.7396 19.8565 27.9149 17.781 27.9149 15.2099C27.9149 12.6388 29.7396 10.5633 32 10.5633C34.2605 10.5633 36.0851 12.6388 36.0851 15.2099C36.0851 17.781 34.2605 19.8565 32 19.8565Z" fill="#1C355E"/>
</svg>
