<svg width="64" height="64" viewBox="0 0 64 64" fill="none" xmlns="http://www.w3.org/2000/svg">
<path d="M43.2235 1.26315H20.1641C18.4985 1.26315 17.1483 2.74837 17.1483 4.58049V59.8125C17.1483 61.6446 18.4985 63.1298 20.1641 63.1298H43.2235C44.889 63.1298 46.2392 61.6446 46.2392 59.8125V4.58049C46.2392 2.74837 44.889 1.26315 43.2235 1.26315Z" fill="white"/>
<path d="M40.6787 24.5333H22.3514C21.5213 24.5333 20.8484 25.2735 20.8484 26.1867V38.88C20.8484 39.7931 21.5213 40.5333 22.3514 40.5333H40.6787C41.5088 40.5333 42.1817 39.7931 42.1817 38.88V26.1867C42.1817 25.2735 41.5088 24.5333 40.6787 24.5333Z" fill="#00AE42" fill-opacity="0.8"/>
<path d="M41.8133 39.9573C41.68 40.1356 41.5128 40.2796 41.3235 40.3791C41.1342 40.4786 40.9273 40.5313 40.7175 40.5333H22.2933C22.0834 40.5313 21.8766 40.4786 21.6873 40.3791C21.4979 40.2796 21.3308 40.1356 21.1975 39.9573L31.5151 30.5173L41.8133 39.9573Z" fill="#00AE42" fill-opacity="0.8"/>
<path d="M41.6291 24.9173L31.5152 34.3467L21.4012 24.9173C21.6508 24.6686 21.976 24.5316 22.3128 24.5333H40.737C41.0671 24.5369 41.3845 24.6735 41.6291 24.9173Z" fill="#00AE42" fill-opacity="0.5"/>
<path d="M40.6789 23.4667H22.3516C22.0269 23.4667 21.7054 23.537 21.4054 23.6737C21.1054 23.8104 20.8328 24.0108 20.6032 24.2633C20.3735 24.5159 20.1914 24.8158 20.0671 25.1458C19.9429 25.4758 19.8789 25.8295 19.8789 26.1867V38.88C19.8789 39.6014 20.1394 40.2932 20.6032 40.8033C21.0669 41.3134 21.6958 41.6 22.3516 41.6H40.6789C41.3347 41.6 41.9637 41.3134 42.4274 40.8033C42.8911 40.2932 43.1516 39.6014 43.1516 38.88V26.1867C43.1516 25.8295 43.0877 25.4758 42.9634 25.1458C42.8391 24.8158 42.657 24.5159 42.4274 24.2633C42.1978 24.0108 41.9252 23.8104 41.6252 23.6737C41.3252 23.537 41.0036 23.4667 40.6789 23.4667ZM39.3892 25.6L31.5153 32.9493L23.6413 25.6H39.3892ZM21.8183 38.0267V26.6667L27.9468 32.3733L21.8183 38.0267ZM23.2728 39.4667L29.4401 33.8133L30.885 35.2C31.0606 35.3653 31.2841 35.4561 31.5153 35.4561C31.7464 35.4561 31.9699 35.3653 32.1456 35.2L33.5904 33.856L39.7577 39.4667H23.2728ZM41.2122 38.0267L35.0838 32.4053L41.2122 26.6667V38.0267ZM24.7274 57.6H20.8486C20.5914 57.6 20.3448 57.7124 20.1629 57.9124C19.9811 58.1125 19.8789 58.3838 19.8789 58.6667C19.8789 58.9496 19.9811 59.2209 20.1629 59.4209C20.3448 59.621 20.5914 59.7333 20.8486 59.7333H24.7274C24.9846 59.7333 25.2312 59.621 25.4131 59.4209C25.5949 59.2209 25.6971 58.9496 25.6971 58.6667C25.6971 58.3838 25.5949 58.1125 25.4131 57.9124C25.2312 57.7124 24.9846 57.6 24.7274 57.6Z" fill="#1E120B"/>
<path d="M28.606 59.7333C29.1416 59.7333 29.5757 59.2558 29.5757 58.6667C29.5757 58.0776 29.1416 57.6 28.606 57.6C28.0705 57.6 27.6364 58.0776 27.6364 58.6667C27.6364 59.2558 28.0705 59.7333 28.606 59.7333Z" fill="#1E120B"/>
<path d="M31.5151 5.33335C32.0507 5.33335 32.4848 4.85578 32.4848 4.26668C32.4848 3.67758 32.0507 3.20001 31.5151 3.20001C30.9796 3.20001 30.5454 3.67758 30.5454 4.26668C30.5454 4.85578 30.9796 5.33335 31.5151 5.33335Z" fill="#1E120B"/>
<path d="M48 17.0667V10.6667C48 10.3838 47.8978 10.1125 47.716 9.91242C47.5341 9.71238 47.2875 9.6 47.0303 9.6V4.384C47.0303 3.22129 46.6104 2.1062 45.863 1.28404C45.1156 0.461884 44.1019 0 43.0448 0H19.9855C18.9284 0 17.9147 0.461884 17.1673 1.28404C16.4199 2.1062 16 3.22129 16 4.384V59.616C16 60.7787 16.4199 61.8938 17.1673 62.716C17.9147 63.5381 18.9284 64 19.9855 64H43.0448C44.1019 64 45.1156 63.5381 45.863 62.716C46.6104 61.8938 47.0303 60.7787 47.0303 59.616V27.7333C47.2875 27.7333 47.5341 27.621 47.716 27.4209C47.8978 27.2209 48 26.9496 48 26.6667V23.4667C48 23.1838 47.8978 22.9125 47.716 22.7124C47.5341 22.5124 47.2875 22.4 47.0303 22.4V18.1333C47.2875 18.1333 47.5341 18.021 47.716 17.8209C47.8978 17.6209 48 17.3496 48 17.0667ZM45.0909 59.616C45.0922 59.912 45.0401 60.2053 44.9378 60.479C44.8354 60.7527 44.6847 61.0013 44.4945 61.2106C44.3042 61.4199 44.0782 61.5856 43.8294 61.6982C43.5805 61.8108 43.3139 61.8681 43.0448 61.8667H19.9855C19.7164 61.8681 19.4498 61.8108 19.2009 61.6982C18.9521 61.5856 18.7261 61.4199 18.5358 61.2106C18.3456 61.0013 18.1949 60.7527 18.0925 60.479C17.9902 60.2053 17.9381 59.912 17.9394 59.616V4.384C17.9381 4.08804 17.9902 3.79474 18.0925 3.52104C18.1949 3.24734 18.3456 2.99866 18.5358 2.78939C18.7261 2.58011 18.9521 2.41438 19.2009 2.30178C19.4498 2.18917 19.7164 2.13192 19.9855 2.13333H43.0448C43.3139 2.13192 43.5805 2.18917 43.8294 2.30178C44.0782 2.41438 44.3042 2.58011 44.4945 2.78939C44.6847 2.99866 44.8354 3.24734 44.9378 3.52104C45.0401 3.79474 45.0922 4.08804 45.0909 4.384V59.616Z" fill="#1E120B"/>
</svg>
