<svg width="61" height="60" viewBox="0 0 61 60" fill="none" xmlns="http://www.w3.org/2000/svg">
<g clip-path="url(#clip0_30_519)">
<path d="M59.1327 17.4805C57.9968 16.1038 56.318 15.3149 54.53 15.3149H41.3134L41.2692 15.156C41.0063 14.2031 40.4025 13.3859 39.5653 12.8536L39.4644 12.7904L39.4433 4.77389C39.4139 3.25725 38.5661 1.86576 37.2303 1.14424C36.614 0.811895 35.9198 0.63623 35.2236 0.63623C34.46 0.63623 33.7068 0.846582 33.0464 1.24408L32.8675 1.34721L32.8654 1.34404L25.3305 5.68678C23.5446 6.80275 22.3897 8.72334 22.2383 10.8795L22.2362 15.316L22.0215 15.3169C19.6129 15.3297 17.3033 16.2246 15.5131 17.8381L2.67934 29.4308C1.29512 30.6783 0.5 32.4653 0.5 34.3333C0.5 35.0064 0.605234 35.6807 0.811367 36.3368L6.92012 55.5351C7.64996 57.8248 9.7557 59.3636 12.1579 59.3636H39.3129C42.2452 59.3636 45.0303 58.2497 47.157 56.2261L55.0644 48.6964C56.0679 47.7382 56.7368 46.5149 57.0018 45.1256L60.4053 22.3324C60.4684 21.9696 60.5 21.6172 60.5 21.2858C60.5 19.9017 60.014 18.5502 59.1327 17.4805ZM4.31797 35.2241C4.23605 34.9685 4.19187 34.6994 4.18332 34.4006L4.1791 34.1797H12.219L12.9805 40.1938H5.89988L4.31797 35.2241ZM6.58145 42.332H13.2498L13.9377 47.7646H8.30844L6.58145 42.332ZM12.1579 55.6845C11.3608 55.6845 10.6666 55.1754 10.4267 54.4192L8.98789 49.9017H14.2068L14.9389 55.6845H12.1579ZM22.7977 55.6845H17.0908L16.363 49.9017H22.7977V55.6845ZM22.7977 47.7646H16.0895L15.4059 42.332H22.7977V47.7646ZM22.7977 40.1938H15.1345L14.3751 34.1797H22.7977V40.1938ZM31.839 55.6845H24.935V49.9017H31.9841L31.839 55.6845ZM32.0387 47.7646H24.935V42.332H32.1733L32.0387 47.7646ZM32.228 40.1938H24.935V34.1797H32.3775L32.228 40.1938ZM33.5408 15.3149H28.9276V29.8769L28.5216 29.9746C27.9873 28.9313 27.1059 28.0951 26.0374 27.6208L25.9089 27.5639L25.9174 11.0437C25.9931 10.1371 26.4979 9.30389 27.2763 8.81287L34.9375 4.39537C35.0238 4.3417 35.1206 4.31439 35.2237 4.31439C35.3163 4.31439 35.4045 4.3376 35.4802 4.37967C35.6527 4.47107 35.7622 4.6499 35.7664 4.84865L35.7853 12.5846L35.6654 12.6446C34.6452 13.1462 33.8858 14.0624 33.5829 15.1573L33.5408 15.3149ZM40.209 55.635L40.0238 55.6518C39.7903 55.6738 39.5504 55.6845 39.3127 55.6845H33.976L34.1233 49.9017H40.5391L40.209 55.635ZM40.6613 47.7646H34.1761L34.3107 42.332H40.9748L40.6613 47.7646ZM41.0968 40.1938H34.3653L34.5167 34.1797H40.0702C40.411 34.1797 40.7686 34.1546 41.1935 34.1009L41.4501 34.0683L41.0968 40.1938ZM47.6199 50.7063L44.6203 53.562C44.2269 53.9385 43.7704 54.2824 43.2614 54.5864L42.9121 54.7946L43.2318 49.2748L48.0028 45.4411L47.6199 50.7063ZM48.2152 42.5288L43.3959 46.4004L43.703 41.0458L48.6086 37.1047L48.2152 42.5288ZM48.8211 34.1913L43.8692 38.1702L44.1533 33.2258L44.2647 33.1701C44.9988 32.7988 45.6782 32.3338 46.282 31.7891L49.1913 29.0902L48.8211 34.1913ZM53.3795 44.4798C53.2616 45.074 52.9672 45.6105 52.5275 46.0322L49.9211 48.5133L50.2788 43.6109L53.9516 40.6627L53.3795 44.4798ZM54.4166 37.5434L50.4913 40.6997L50.8846 35.2746L55.2832 31.7407L54.4166 37.5434ZM55.748 28.6241L51.097 32.3622L51.4883 26.9591L56.722 22.103L55.748 28.6241Z" fill="#1C355E"/>
</g>
<defs>
<clipPath id="clip0_30_519">
<rect width="60" height="60" fill="white" transform="translate(0.5)"/>
</clipPath>
</defs>
</svg>
