<svg xmlns="http://www.w3.org/2000/svg" version="1.1" xmlns:xlink="http://www.w3.org/1999/xlink" width="30" height="30" x="0" y="0" viewBox="0 0 64 64" style="enable-background:new 0 0 512 512" xml:space="preserve" class=""><g><g data-name="Down"><g fill="#37e288"><path d="M32 44a2 2 0 0 1-2-2V22a2 2 0 0 1 4 0v20a2 2 0 0 1-2 2z" fill="#00ae42" opacity="1" data-original="#37e288" class=""></path><path d="M32 44a1.994 1.994 0 0 1-1.414-.586l-9-9a2 2 0 0 1 2.828-2.828l9 9A2 2 0 0 1 32 44z" fill="#00ae42" opacity="1" data-original="#37e288" class=""></path><path d="M32 44a2 2 0 0 1-1.414-3.414l9-9a2 2 0 0 1 2.828 2.828l-9 9A1.994 1.994 0 0 1 32 44z" fill="#00ae42" opacity="1" data-original="#37e288" class=""></path></g><path fill="#005cb9" d="M32 58a25.978 25.978 0 1 1 24.549-17.416 2 2 0 1 1-3.776-1.32 22.023 22.023 0 1 0-3.403 6.24 2 2 0 0 1 3.156 2.457A25.852 25.852 0 0 1 32 58z" opacity="1" data-original="#546e7a" class=""></path></g></g></svg>