<?xml version="1.0" encoding="UTF-8"?>
<!-- Generator: Adobe Illustrator 26.0.3, SVG Export Plug-In . SVG Version: 6.00 Build 0)  -->
<svg xmlns="http://www.w3.org/2000/svg" xmlns:xlink="http://www.w3.org/1999/xlink" version="1.1" id="Capa_1" x="0px" y="0px" viewBox="0 0 512.001 512.001" style="enable-background:new 0 0 512.001 512.001;" xml:space="preserve" width="512" height="512">
<g id="Fast_Forward">
	<path style="fill:#33CCCC;" d="M305.34,512c-2.407,0-4.831-0.786-6.857-2.404c-4.747-3.791-5.522-10.713-1.731-15.46L486.923,256   L296.751,17.865c-3.791-4.747-3.016-11.669,1.731-15.46c4.747-3.79,11.668-3.016,15.46,1.731l195.653,245   c3.206,4.015,3.206,9.714,0,13.729l-195.653,245C311.77,510.584,308.57,512,305.34,512z"/>
	<path d="M156.894,512c-2.407,0-4.831-0.786-6.857-2.404c-4.747-3.791-5.522-10.713-1.731-15.46L338.479,256L148.305,17.865   c-3.791-4.747-3.016-11.669,1.731-15.46c4.748-3.79,11.668-3.016,15.459,1.731l195.656,245c3.206,4.015,3.206,9.714,0,13.729   l-195.656,245C163.324,510.584,160.123,512,156.894,512z"/>
	<path d="M10.994,512c-2.407,0-4.831-0.786-6.857-2.404c-4.747-3.791-5.522-10.713-1.731-15.46L192.579,256L2.405,17.865   c-3.792-4.747-3.016-11.669,1.731-15.46c4.747-3.79,11.668-3.016,15.46,1.731l195.655,245c3.206,4.015,3.206,9.714,0,13.729   l-195.655,245C17.424,510.584,14.223,512,10.994,512z"/>
</g>















</svg>
