<svg width="163" height="60" viewBox="0 0 163 60" fill="none" xmlns="http://www.w3.org/2000/svg">
<path d="M6.10005 2H50.9001C51.6427 2 52.3549 2.29565 52.88 2.82192C53.4051 3.34818 53.7001 4.06195 53.7001 4.8062V38.4806C53.7001 39.9691 53.1101 41.3967 52.0598 42.4492C51.0096 43.5017 49.5853 44.093 48.1001 44.093H8.90005C7.41484 44.093 5.99045 43.5017 4.94025 42.4492C3.89005 41.3967 3.30005 39.9691 3.30005 38.4806V4.8062C3.30005 4.06195 3.59505 3.34818 4.12015 2.82192C4.64525 2.29565 5.35744 2 6.10005 2Z" fill="#1C355E"/>
<path d="M14.5 16.031H42.5C43.2426 16.031 43.9548 16.3267 44.4799 16.8529C45.005 17.3792 45.3 18.093 45.3 18.8372C45.3 19.5815 45.005 20.2952 44.4799 20.8215C43.9548 21.3478 43.2426 21.6434 42.5 21.6434H14.5C13.7574 21.6434 13.0452 21.3478 12.5201 20.8215C11.995 20.2952 11.7 19.5815 11.7 18.8372C11.7 18.093 11.995 17.3792 12.5201 16.8529C13.0452 16.3267 13.7574 16.031 14.5 16.031ZM20.1 41.2868C20.0994 43.2741 20.6252 45.2258 21.6237 46.9427C22.6222 48.6596 24.0575 50.08 25.7831 51.0589C27.5087 52.0378 29.4627 52.54 31.4454 52.5142C33.428 52.4884 35.3683 51.9355 37.068 50.9121L43.312 57.1699C43.5723 57.4329 43.882 57.6417 44.2232 57.7842C44.5644 57.9267 44.9304 58 45.3 58C45.6696 58 46.0356 57.9267 46.3768 57.7842C46.718 57.6417 47.0277 57.4329 47.288 57.1699C47.5504 56.9091 47.7587 56.5987 47.9009 56.2567C48.043 55.9148 48.1162 55.548 48.1162 55.1775C48.1162 54.8071 48.043 54.4403 47.9009 54.0983C47.7587 53.7564 47.5504 53.446 47.288 53.1851L40.988 46.8992C41.8509 45.4084 42.3597 43.7383 42.4748 42.0187C42.59 40.299 42.3085 38.5758 41.6521 36.9827C40.9957 35.3897 39.9821 33.9695 38.6898 32.8323C37.3975 31.695 35.8613 30.8714 34.2002 30.425C32.5392 29.9787 30.7978 29.9218 29.1112 30.2586C27.4247 30.5954 25.8381 31.317 24.4746 32.3673C23.1111 33.4177 22.0072 34.7686 21.2486 36.3154C20.49 37.8622 20.097 39.5633 20.1 41.2868ZM3.3 7.6124H53.7C54.4426 7.6124 55.1548 7.31675 55.6799 6.79049C56.205 6.26422 56.5 5.55045 56.5 4.8062C56.5 4.06195 56.205 3.34818 55.6799 2.82192C55.1548 2.29565 54.4426 2 53.7 2H3.3C2.55739 2 1.8452 2.29565 1.3201 2.82192C0.794999 3.34818 0.5 4.06195 0.5 4.8062C0.5 5.55045 0.794999 6.26422 1.3201 6.79049C1.8452 7.31675 2.55739 7.6124 3.3 7.6124Z" fill="#005CB9"/>
<g clip-path="url(#clip0_51_522)">
<path d="M128.929 28.2079C128.929 27.2383 129.222 26.2903 129.772 25.4839C130.322 24.6775 131.103 24.0489 132.018 23.6775C132.933 23.3061 133.939 23.2087 134.911 23.3976C135.882 23.5865 136.774 24.0532 137.474 24.7386C138.175 25.4241 138.652 26.2975 138.845 27.2484C139.038 28.1993 138.939 29.185 138.561 30.0809C138.182 30.9767 137.54 31.7424 136.717 32.2811C135.893 32.8198 134.926 33.1074 133.935 33.1074C133.278 33.1077 132.627 32.9812 132.02 32.7351C131.412 32.489 130.86 32.1282 130.396 31.6732C129.931 31.2182 129.562 30.6779 129.31 30.0834C129.059 29.4888 128.929 28.8515 128.929 28.2079Z" fill="#231F20"/>
<path d="M128.929 28.2056C128.929 27.2361 129.223 26.2883 129.773 25.4822C130.323 24.6761 131.105 24.0479 132.02 23.6768C132.934 23.3058 133.941 23.2088 134.912 23.3979C135.883 23.587 136.775 24.0539 137.475 24.7394C138.175 25.425 138.652 26.2984 138.845 27.2493C139.038 28.2001 138.939 29.1857 138.56 30.0814C138.181 30.9771 137.54 31.7427 136.716 32.2813C135.893 32.8199 134.925 33.1074 133.935 33.1074C132.608 33.1074 131.334 32.591 130.395 31.6717C129.457 30.7524 128.929 29.5056 128.929 28.2056Z" fill="url(#paint0_radial_51_522)"/>
<path opacity="0.7" d="M130.107 27.0522C130.107 25.3007 131.821 23.8804 133.936 23.8804C136.052 23.8804 137.763 25.3007 137.763 27.0522C137.763 28.8036 136.05 30.2239 133.936 30.2239C131.823 30.2239 130.107 28.8036 130.107 27.0522Z" fill="url(#paint1_linear_51_522)"/>
<path d="M140.708 28.2079C140.707 27.2382 141.001 26.2901 141.55 25.4837C142.1 24.6772 142.882 24.0486 143.797 23.6773C144.712 23.306 145.719 23.2087 146.69 23.3978C147.661 23.5869 148.553 24.0538 149.254 24.7394C149.954 25.4251 150.431 26.2987 150.624 27.2498C150.817 28.2009 150.718 29.1867 150.338 30.0825C149.959 30.9783 149.317 31.7438 148.494 32.2822C147.67 32.8207 146.702 33.1078 145.712 33.1074C144.384 33.1074 143.112 32.5912 142.173 31.6724C141.235 30.7535 140.708 29.5073 140.708 28.2079Z" fill="#231F20"/>
<path d="M140.708 28.2056C140.708 27.236 141.001 26.2881 141.552 25.482C142.102 24.6758 142.884 24.0476 143.799 23.6766C144.714 23.3057 145.72 23.2087 146.691 23.3981C147.663 23.5874 148.555 24.0545 149.255 24.7403C149.955 25.426 150.431 26.2997 150.624 27.2507C150.817 28.2017 150.717 29.1874 150.338 30.0831C149.959 30.9787 149.317 31.7441 148.493 32.2824C147.67 32.8208 146.702 33.1079 145.711 33.1074C145.054 33.1074 144.403 32.9806 143.796 32.7342C143.189 32.4878 142.637 32.1267 142.172 31.6715C141.708 31.2163 141.339 30.6759 141.088 30.0812C140.837 29.4865 140.707 28.8492 140.708 28.2056Z" fill="url(#paint2_radial_51_522)"/>
<path d="M152.487 28.2056C152.487 27.2361 152.781 26.2883 153.331 25.4822C153.881 24.6761 154.663 24.0479 155.578 23.6768C156.492 23.3058 157.499 23.2088 158.47 23.3979C159.441 23.587 160.333 24.0539 161.033 24.7394C161.733 25.425 162.21 26.2984 162.403 27.2493C162.597 28.2001 162.497 29.1857 162.119 30.0814C161.74 30.9771 161.098 31.7427 160.275 32.2813C159.451 32.8199 158.484 33.1074 157.493 33.1074C156.166 33.1074 154.892 32.5909 153.954 31.6717C153.015 30.7524 152.487 29.5056 152.487 28.2056Z" fill="#231F20"/>
<path d="M152.487 28.2056C152.487 27.2361 152.781 26.2883 153.331 25.4822C153.881 24.6761 154.663 24.0479 155.578 23.6768C156.492 23.3058 157.499 23.2088 158.47 23.3979C159.441 23.587 160.333 24.0539 161.033 24.7394C161.733 25.425 162.21 26.2984 162.403 27.2493C162.597 28.2001 162.497 29.1857 162.119 30.0814C161.74 30.9771 161.098 31.7427 160.275 32.2813C159.451 32.8199 158.484 33.1074 157.493 33.1074C156.166 33.1074 154.892 32.591 153.954 31.6717C153.015 30.7524 152.487 29.5056 152.487 28.2056Z" fill="url(#paint3_radial_51_522)"/>
<path d="M85.3466 33.6841H81.7332V25.732L78.1976 33.6841H74.8977L71.2749 25.732V33.6841H67.678V23.3037H73.7192L76.5878 29.8237L79.157 23.3037H85.3466V33.6841Z" fill="#676767"/>
<path d="M108.542 23.3037V29.3303C108.542 29.3303 108.542 29.3646 108.542 30.0907C108.542 30.8167 108.518 31.3612 107.456 31.3612H106.715C105.633 31.3612 105.811 30.5837 105.737 29.4922V28.7318H101.838V29.4677C101.838 32.9212 102.55 33.6841 106.366 33.6841H108.342C111.216 33.6841 112.439 32.9679 112.439 29.4701V23.3037H108.542Z" fill="#676767"/>
<path d="M100.659 27.5514V29.4316C100.659 31.9425 99.5141 32.8957 97.4239 33.3042C96.6635 33.4511 95.8956 33.5603 95.1233 33.6315L93.592 33.6841L92.0582 33.6315C91.2868 33.5601 90.5197 33.4508 89.76 33.3042C87.6674 32.8957 86.5245 31.9425 86.5245 29.4316V27.5586C86.5245 25.0453 87.6674 24.0945 89.76 23.686C90.5197 23.5393 91.2868 23.4301 92.0582 23.3587L93.592 23.3037L95.1233 23.3587C95.8956 23.4298 96.6635 23.5391 97.4239 23.686C99.5141 24.0873 100.659 25.0382 100.659 27.5514ZM95.216 25.8791C94.8954 25.7993 94.5698 25.7394 94.2411 25.6999L93.592 25.6712L92.9429 25.6999C92.6142 25.7394 92.2885 25.7993 91.968 25.8791C91.0808 26.0989 90.5971 26.6173 90.5971 27.9791V28.9968C90.5971 30.3585 91.0808 30.877 91.968 31.0968C92.2885 31.1765 92.6142 31.2364 92.9429 31.2759L93.592 31.3046L94.2411 31.2759C94.5698 31.2364 94.8954 31.1765 95.216 31.0968C96.1032 30.877 96.5869 30.3585 96.5869 28.9968V27.9791C96.5869 26.6173 96.1032 26.0989 95.216 25.8791Z" fill="#676767"/>
<path d="M127.162 27.5514V29.4316C127.162 31.9425 126.067 32.8957 124.061 33.3042C123.333 33.4508 122.598 33.5601 121.858 33.6315L120.388 33.6841L118.92 33.6315C118.18 33.5603 117.444 33.4511 116.715 33.3042C114.712 32.8957 113.616 31.9425 113.616 29.4316V27.5586C113.616 25.0453 114.712 24.0945 116.715 23.686C117.444 23.5391 118.18 23.4298 118.92 23.3587L120.388 23.3037L121.858 23.3587C122.598 23.4301 123.333 23.5393 124.061 23.686C126.074 24.0873 127.162 25.0382 127.162 27.5514ZM121.947 25.8791C121.639 25.7992 121.326 25.7393 121.01 25.6999L120.388 25.6712L119.766 25.6999C119.451 25.7394 119.139 25.7993 118.831 25.8791C117.981 26.0989 117.517 26.6173 117.517 27.9791V28.9968C117.517 30.3585 117.981 30.877 118.831 31.0968C119.139 31.1765 119.451 31.2364 119.766 31.2759L120.388 31.3046L121.01 31.2759C121.326 31.2365 121.639 31.1767 121.947 31.0968C122.795 30.877 123.261 30.3585 123.261 28.9968V27.9791C123.268 26.6173 122.802 26.0989 121.954 25.8791H121.947Z" fill="#676767"/>
<path d="M80.635 21.5736H78.5531L78.62 14.7712L75.1222 21.5736H73.2122L69.6596 14.8078L69.7599 21.5736H67.678V13.5H71.1088L74.1051 19.4924H74.1744L77.1397 13.5H80.635V21.5736Z" fill="#676767"/>
<path d="M88.2435 20.0243L87.5605 21.5736H85.3466L89.0435 13.5H92.1745L95.9478 21.5736H93.7745L93.0581 20.0243H88.2435ZM90.6317 14.6858L88.7211 18.8751H92.5422L90.6317 14.6858Z" fill="#676767"/>
<path d="M100.66 13.5H105.951C107.2 13.5098 108.104 13.6895 108.663 14.0392C109.215 14.3906 109.494 15.0469 109.494 16.0058V16.3083C109.495 16.4142 109.484 16.5198 109.461 16.6231C109.44 16.8534 109.382 17.0784 109.29 17.2892C109.187 17.5182 109.019 17.7084 108.808 17.8333C108.672 17.9174 108.527 17.9822 108.375 18.026C108.221 18.0749 108.064 18.1156 107.906 18.148C107.843 18.1544 107.781 18.165 107.719 18.1797C107.658 18.1797 107.595 18.2017 107.53 18.209V18.2456C108.173 18.2846 108.639 18.4383 108.934 18.7043C109.082 18.8442 109.198 19.0166 109.275 19.209C109.351 19.4014 109.385 19.609 109.375 19.8169V21.5736H107.267V20.1097L107.284 19.9291C107.294 19.759 107.254 19.5896 107.171 19.443C107.087 19.2965 106.963 19.1794 106.815 19.1069C106.44 18.9462 106.036 18.8721 105.631 18.8897H102.685V21.5736H100.66V13.5ZM105.624 17.5795C106.265 17.5795 106.715 17.4884 106.972 17.3062C107.107 17.1915 107.213 17.0436 107.28 16.8758C107.346 16.708 107.372 16.5256 107.354 16.3449C107.379 15.9578 107.302 15.5709 107.134 15.225C106.989 14.981 106.527 14.8566 105.755 14.8566H102.685V17.5795H105.624Z" fill="#676767"/>
<path opacity="0.7" d="M141.887 27.0522C141.887 25.3007 143.6 23.8804 145.716 23.8804C147.831 23.8804 149.543 25.3007 149.543 27.0522C149.543 28.8036 147.829 30.2239 145.716 30.2239C143.603 30.2239 141.887 28.8036 141.887 27.0522Z" fill="url(#paint4_linear_51_522)"/>
<path opacity="0.7" d="M153.077 27.0522C153.077 25.3007 154.922 23.8804 157.201 23.8804C159.479 23.8804 161.322 25.3007 161.322 27.0522C161.322 28.8036 159.476 30.2239 157.201 30.2239C154.925 30.2239 153.077 28.8036 153.077 27.0522Z" fill="url(#paint5_linear_51_522)"/>
<path d="M116.359 16.7884H117.367L121.107 13.5H123.748L119.207 17.4295L124.218 21.5736H121.493L117.372 18.1072H116.359V21.5663H114.206V13.5H116.359V16.7884Z" fill="#676767"/>
<path d="M130.422 16.889H135.676V18.0163H130.422V20.3024H135.996V21.5736H128.34V13.5H135.946V14.7931H130.422V16.889Z" fill="#676767"/>
<path d="M145.834 21.5736H143.781V14.8688H140.708V13.5H148.953V14.8688H145.834V21.5736Z" fill="#676767"/>
<path d="M160.214 15.8671C160.214 15.4028 160.082 15.0908 159.82 14.9312C159.558 14.7716 159.1 14.6893 158.451 14.6893H157.877C157.775 14.6893 157.669 14.7014 157.553 14.7014C157.438 14.7014 157.317 14.7014 157.216 14.7014C157.041 14.7014 156.864 14.728 156.689 14.7546C156.532 14.7786 156.377 14.8207 156.229 14.8804C156.11 14.9308 156.007 15.0146 155.932 15.1222C155.865 15.2241 155.815 15.3359 155.783 15.4536C155.785 15.4987 155.785 15.5439 155.783 15.589C155.781 15.6309 155.781 15.6729 155.783 15.7148C155.783 16.1138 155.891 16.3895 156.106 16.5371C156.321 16.6846 156.711 16.7789 157.287 16.7934C157.341 16.7934 157.395 16.7934 157.445 16.7934C157.494 16.7934 157.546 16.7934 157.601 16.7934C157.742 16.7934 157.882 16.8079 158.021 16.8128C158.16 16.8176 158.292 16.8128 158.425 16.8128C159.38 16.8362 160.331 16.9593 161.262 17.1804C162.084 17.3754 162.495 18.0067 162.497 19.074C162.521 19.6669 162.366 20.253 162.053 20.7524C161.756 21.191 161.069 21.4497 159.992 21.5287L159.475 21.5457C159.305 21.5457 159.138 21.5457 158.972 21.565C158.807 21.5844 158.623 21.565 158.453 21.565H157.934C156.896 21.588 155.859 21.4849 154.846 21.2579C154.051 21.0531 153.657 20.3969 153.665 19.2892V19.2119C153.664 19.1843 153.67 19.1569 153.682 19.1321V18.9773L155.674 18.9652C155.664 19.3 155.735 19.6322 155.88 19.9326C156.017 20.1962 156.392 20.334 157.006 20.3413C157.272 20.3413 157.535 20.3413 157.797 20.3413H158.587C159.069 20.3692 159.55 20.2977 160.004 20.1309C160.301 19.9906 160.45 19.6738 160.45 19.1853C160.45 18.6548 160.26 18.342 159.881 18.2469C159.403 18.1383 158.914 18.0856 158.425 18.0897H158.094C157.985 18.0897 157.87 18.0897 157.749 18.0776H157.575C157.516 18.0776 157.459 18.0776 157.402 18.0583C156.472 18.0493 155.546 17.911 154.652 17.6471C153.999 17.4198 153.672 16.7749 153.672 15.7123C153.654 15.4256 153.698 15.1383 153.8 14.8708C153.902 14.6033 154.061 14.3621 154.265 14.1645C154.658 13.8034 155.333 13.5954 156.29 13.5406C156.574 13.5261 156.864 13.514 157.154 13.5043C157.445 13.4946 157.733 13.5043 158.019 13.5043C159.007 13.492 159.995 13.5803 160.967 13.7679C161.801 13.9453 162.218 14.5458 162.218 15.5697V15.8695L160.214 15.8671Z" fill="#676767"/>
<path d="M68.4444 46.3508C69.7866 46.3508 70.4106 45.7291 70.4106 45.006C70.4106 43.2691 67.3344 43.9923 67.3344 42.8366C67.3344 42.4244 67.7044 42.0865 68.5677 42.0865C69.0176 42.0865 69.5182 42.2081 69.9608 42.4717L70.2002 41.9311C69.7794 41.6607 69.1627 41.5121 68.5677 41.5121C67.2328 41.5121 66.6233 42.1338 66.6233 42.8637C66.6233 44.6208 69.6996 43.8909 69.6996 45.0465C69.6996 45.4588 69.3223 45.7764 68.4444 45.7764C67.7914 45.7764 67.1457 45.5466 66.7684 45.229L66.5 45.7561C66.9063 46.1075 67.6681 46.3508 68.4444 46.3508Z" fill="#81878C"/>
<path d="M73.3133 45.621C73.1682 45.7292 72.9723 45.79 72.7692 45.79C72.3846 45.79 72.167 45.5737 72.167 45.1885V43.249H73.2698V42.7151H72.167V41.9312H71.4705V42.7151H70.8175V43.249H71.4705V45.2156C71.4705 45.9387 71.9131 46.3374 72.6894 46.3374C73.0013 46.3374 73.3206 46.2563 73.531 46.0874L73.3133 45.621Z" fill="#81878C"/>
<path d="M75.8925 46.3373C77.0461 46.3373 77.8877 45.5736 77.8877 44.5059C77.8877 43.4381 77.0461 42.6812 75.8925 42.6812C74.7389 42.6812 73.89 43.4381 73.89 44.5059C73.89 45.5736 74.7389 46.3373 75.8925 46.3373ZM75.8925 45.7696C75.1524 45.7696 74.5938 45.2695 74.5938 44.5059C74.5938 43.7422 75.1524 43.2489 75.8925 43.2489C76.6325 43.2489 77.1839 43.7422 77.1839 44.5059C77.1839 45.2695 76.6325 45.7696 75.8925 45.7696Z" fill="#81878C"/>
<path d="M80.5269 46.3373C81.2162 46.3373 81.7893 46.067 82.0941 45.5669L81.5644 45.256C81.3177 45.6074 80.9405 45.7696 80.5197 45.7696C79.7651 45.7696 79.1992 45.283 79.1992 44.5059C79.1992 43.7422 79.7651 43.2489 80.5197 43.2489C80.9405 43.2489 81.3177 43.4111 81.5644 43.7625L82.0941 43.4449C81.7893 42.9448 81.2162 42.6812 80.5269 42.6812C79.3443 42.6812 78.4954 43.4381 78.4954 44.5059C78.4954 45.5736 79.3443 46.3373 80.5269 46.3373Z" fill="#81878C"/>
<path d="M85.8846 46.2968H86.7407L84.9632 44.195L86.5811 42.715H85.7395L83.6427 44.4991V41.2823H82.9462V46.2968H83.6427V45.3168L84.4408 44.6275L85.8846 46.2968Z" fill="#81878C"/>
<path d="M93.5735 45.9386L92.8915 45.3033C93.0946 45.006 93.247 44.641 93.334 44.222L92.7754 44.0531C92.7101 44.3842 92.6013 44.6681 92.4634 44.9114L91.2082 43.749C91.9846 43.3367 92.2893 42.9921 92.2893 42.5122C92.2893 41.8973 91.7959 41.5256 91.0269 41.5256C90.1925 41.5256 89.6556 41.9513 89.6556 42.5866C89.6556 42.938 89.808 43.2421 90.2651 43.6679C89.3872 44.1342 89.0317 44.5397 89.0317 45.1209C89.0317 45.844 89.779 46.3508 90.8092 46.3508C91.4839 46.3508 92.0644 46.1413 92.5069 45.7426L93.1817 46.3711L93.5735 45.9386ZM91.0269 41.9986C91.4622 41.9986 91.7016 42.2081 91.7016 42.519C91.7016 42.8164 91.4839 43.0326 90.8165 43.384C90.4029 42.9921 90.3013 42.8164 90.3013 42.5731C90.3013 42.2352 90.5698 41.9986 91.0269 41.9986ZM90.8527 45.8102C90.1707 45.8102 89.7137 45.5061 89.7137 45.0533C89.7137 44.6748 89.9386 44.3977 90.6496 44.026L92.0934 45.3641C91.7669 45.6615 91.3388 45.8102 90.8527 45.8102Z" fill="#81878C"/>
<path d="M98.3699 41.566H96.3892V46.2967H97.1148V44.8639H98.3699C99.6904 44.8639 100.488 44.2422 100.488 43.215C100.488 42.1878 99.6904 41.566 98.3699 41.566ZM98.3482 44.276H97.1148V42.154H98.3482C99.2768 42.154 99.7629 42.5392 99.7629 43.215C99.7629 43.8908 99.2768 44.276 98.3482 44.276Z" fill="#81878C"/>
<path d="M103.086 46.3373C104.239 46.3373 105.081 45.5736 105.081 44.5059C105.081 43.4381 104.239 42.6812 103.086 42.6812C101.932 42.6812 101.083 43.4381 101.083 44.5059C101.083 45.5736 101.932 46.3373 103.086 46.3373ZM103.086 45.7696C102.346 45.7696 101.787 45.2695 101.787 44.5059C101.787 43.7422 102.346 43.2489 103.086 43.2489C103.826 43.2489 104.377 43.7422 104.377 44.5059C104.377 45.2695 103.826 45.7696 103.086 45.7696Z" fill="#81878C"/>
<path d="M106.711 43.3165V42.715H106.044V46.2968H106.74V44.5126C106.74 43.7287 107.205 43.3029 107.952 43.3029C108.003 43.3029 108.054 43.3029 108.112 43.3097V42.6812C107.437 42.6812 106.958 42.8975 106.711 43.3165Z" fill="#81878C"/>
<path d="M111.071 45.621C110.925 45.7292 110.73 45.79 110.526 45.79C110.142 45.79 109.924 45.5737 109.924 45.1885V43.249H111.027V42.7151H109.924V41.9312H109.228V42.7151H108.575V43.249H109.228V45.2156C109.228 45.9387 109.67 46.3374 110.447 46.3374C110.759 46.3374 111.078 46.2563 111.288 46.0874L111.071 45.621Z" fill="#81878C"/>
<path d="M113.538 41.7756C113.741 41.7756 113.93 41.8432 114.075 41.9446L114.285 41.4512C114.089 41.3093 113.799 41.2417 113.502 41.2417C112.682 41.2417 112.232 41.7013 112.232 42.3974V42.715H111.579V43.2489H112.232V46.2968H112.928V43.2489H114.031V42.715H112.914V42.4041C112.914 41.9919 113.124 41.7756 113.538 41.7756Z" fill="#81878C"/>
<path d="M116.278 46.3373C117.432 46.3373 118.273 45.5736 118.273 44.5059C118.273 43.4381 117.432 42.6812 116.278 42.6812C115.125 42.6812 114.276 43.4381 114.276 44.5059C114.276 45.5736 115.125 46.3373 116.278 46.3373ZM116.278 45.7696C115.538 45.7696 114.979 45.2695 114.979 44.5059C114.979 43.7422 115.538 43.2489 116.278 43.2489C117.018 43.2489 117.57 43.7422 117.57 44.5059C117.57 45.2695 117.018 45.7696 116.278 45.7696Z" fill="#81878C"/>
<path d="M119.237 46.2968H119.933V41.2823H119.237V46.2968Z" fill="#81878C"/>
<path d="M121.611 42.0257C121.887 42.0257 122.083 41.8364 122.083 41.5931C122.083 41.3634 121.88 41.1809 121.611 41.1809C121.343 41.1809 121.14 41.3701 121.14 41.6067C121.14 41.8432 121.343 42.0257 121.611 42.0257ZM121.263 46.2968H121.96V42.715H121.263V46.2968Z" fill="#81878C"/>
<path d="M124.936 46.3373C126.09 46.3373 126.932 45.5736 126.932 44.5059C126.932 43.4381 126.09 42.6812 124.936 42.6812C123.783 42.6812 122.934 43.4381 122.934 44.5059C122.934 45.5736 123.783 46.3373 124.936 46.3373ZM124.936 45.7696C124.196 45.7696 123.638 45.2695 123.638 44.5059C123.638 43.7422 124.196 43.2489 124.936 43.2489C125.676 43.2489 126.228 43.7422 126.228 44.5059C126.228 45.2695 125.676 45.7696 124.936 45.7696Z" fill="#81878C"/>
<path d="M134.131 46.2967L132.927 44.7085C133.638 44.472 134.044 43.9449 134.044 43.215C134.044 42.1878 133.246 41.566 131.926 41.566H129.945V46.2967H130.67V44.8572H131.926C132.034 44.8572 132.143 44.8504 132.245 44.8437L133.34 46.2967H134.131ZM131.904 44.2828H130.67V42.154H131.904C132.832 42.154 133.319 42.5392 133.319 43.215C133.319 43.8908 132.832 44.2828 131.904 44.2828Z" fill="#81878C"/>
<path d="M138.59 44.5261C138.59 43.4246 137.799 42.6812 136.689 42.6812C135.579 42.6812 134.759 43.4449 134.759 44.5059C134.759 45.5736 135.586 46.3373 136.827 46.3373C137.465 46.3373 137.995 46.1346 138.343 45.7561L137.959 45.3371C137.676 45.6277 137.299 45.7696 136.849 45.7696C136.087 45.7696 135.543 45.3506 135.456 44.7221H138.575C138.583 44.6613 138.59 44.5802 138.59 44.5261ZM136.689 43.2286C137.364 43.2286 137.85 43.6544 137.922 44.2558H135.456C135.528 43.6476 136.022 43.2286 136.689 43.2286Z" fill="#81878C"/>
<path d="M140.66 46.3373C141.683 46.3373 142.321 45.9251 142.321 45.2763C142.321 43.8841 139.884 44.5735 139.884 43.7287C139.884 43.4449 140.181 43.2354 140.791 43.2354C141.168 43.2354 141.552 43.3097 141.901 43.5192L142.198 43.0056C141.864 42.8028 141.298 42.6812 140.798 42.6812C139.811 42.6812 139.194 43.1137 139.194 43.7557C139.194 45.1817 141.625 44.4856 141.625 45.2898C141.625 45.5939 141.356 45.7764 140.711 45.7764C140.21 45.7764 139.688 45.6209 139.361 45.4047L139.071 45.9183C139.39 46.1548 140.021 46.3373 140.66 46.3373Z" fill="#81878C"/>
<path d="M146.667 44.5261C146.667 43.4246 145.876 42.6812 144.766 42.6812C143.656 42.6812 142.836 43.4449 142.836 44.5059C142.836 45.5736 143.663 46.3373 144.904 46.3373C145.542 46.3373 146.072 46.1346 146.42 45.7561L146.036 45.3371C145.753 45.6277 145.376 45.7696 144.926 45.7696C144.164 45.7696 143.62 45.3506 143.533 44.7221H146.653C146.66 44.6613 146.667 44.5802 146.667 44.5261ZM144.766 43.2286C145.441 43.2286 145.927 43.6544 146 44.2558H143.533C143.605 43.6476 144.099 43.2286 144.766 43.2286Z" fill="#81878C"/>
<path d="M148.928 42.6812C148.311 42.6812 147.738 42.8434 147.339 43.1407L147.629 43.6273C147.927 43.3908 148.391 43.2421 148.848 43.2421C149.538 43.2421 149.879 43.5597 149.879 44.1071V44.2355H148.776C147.629 44.2355 147.23 44.7086 147.23 45.283C147.23 45.9048 147.782 46.3373 148.652 46.3373C149.255 46.3373 149.683 46.1481 149.915 45.8237V46.2968H150.575V44.1342C150.575 43.1543 149.98 42.6812 148.928 42.6812ZM148.769 45.8372C148.239 45.8372 147.92 45.6142 147.92 45.256C147.92 44.9519 148.116 44.7019 148.805 44.7019H149.879V45.2019C149.704 45.6142 149.291 45.8372 148.769 45.8372Z" fill="#81878C"/>
<path d="M152.532 43.3165V42.715H151.864V46.2968H152.561V44.5126C152.561 43.7287 153.025 43.3029 153.772 43.3029C153.823 43.3029 153.874 43.3029 153.932 43.3097V42.6812C153.257 42.6812 152.778 42.8975 152.532 43.3165Z" fill="#81878C"/>
<path d="M156.431 46.3373C157.12 46.3373 157.693 46.067 157.998 45.5669L157.468 45.256C157.222 45.6074 156.844 45.7696 156.424 45.7696C155.669 45.7696 155.103 45.283 155.103 44.5059C155.103 43.7422 155.669 43.2489 156.424 43.2489C156.844 43.2489 157.222 43.4111 157.468 43.7625L157.998 43.4449C157.693 42.9448 157.12 42.6812 156.431 42.6812C155.248 42.6812 154.399 43.4381 154.399 44.5059C154.399 45.5736 155.248 46.3373 156.431 46.3373Z" fill="#81878C"/>
<path d="M160.903 42.6812C160.316 42.6812 159.837 42.8772 159.547 43.2218V41.2823H158.85V46.2968H159.547V44.4518C159.547 43.6746 160.026 43.2624 160.766 43.2624C161.426 43.2624 161.803 43.607 161.803 44.3099V46.2968H162.499V44.2355C162.499 43.1813 161.839 42.6812 160.903 42.6812Z" fill="#81878C"/>
<path d="M67.0894 37.144H162.5" stroke="#81878C" stroke-opacity="0.25" stroke-miterlimit="10"/>
</g>
<defs>
<radialGradient id="paint0_radial_51_522" cx="0" cy="0" r="1" gradientUnits="userSpaceOnUse" gradientTransform="translate(133.962 32.2175) scale(5.54361 5.42815)">
<stop stop-color="#FED09D"/>
<stop offset="0.2" stop-color="#F89575"/>
<stop offset="0.43" stop-color="#F1574B"/>
<stop offset="0.6" stop-color="#ED3031"/>
<stop offset="0.68" stop-color="#EB2127"/>
</radialGradient>
<linearGradient id="paint1_linear_51_522" x1="133.936" y1="27.4834" x2="133.936" y2="24.2116" gradientUnits="userSpaceOnUse">
<stop stop-color="white" stop-opacity="0"/>
<stop offset="1" stop-color="white"/>
</linearGradient>
<radialGradient id="paint2_radial_51_522" cx="0" cy="0" r="1" gradientUnits="userSpaceOnUse" gradientTransform="translate(145.741 32.2175) scale(5.54361 5.42815)">
<stop stop-color="#FFE4CA"/>
<stop offset="0.19" stop-color="#FCCA94"/>
<stop offset="0.42" stop-color="#F9AD56"/>
<stop offset="0.59" stop-color="#F79A2F"/>
<stop offset="0.68" stop-color="#F69320"/>
</radialGradient>
<radialGradient id="paint3_radial_51_522" cx="0" cy="0" r="1" gradientUnits="userSpaceOnUse" gradientTransform="translate(157.523 32.2175) scale(5.54361 5.42815)">
<stop stop-color="#CEE4B0"/>
<stop offset="0.01" stop-color="#CAE2AE"/>
<stop offset="0.26" stop-color="#75BD85"/>
<stop offset="0.46" stop-color="#36A166"/>
<stop offset="0.61" stop-color="#0F9053"/>
<stop offset="0.68" stop-color="#008A4C"/>
</radialGradient>
<linearGradient id="paint4_linear_51_522" x1="145.716" y1="27.4834" x2="145.716" y2="24.2116" gradientUnits="userSpaceOnUse">
<stop stop-color="white" stop-opacity="0"/>
<stop offset="1" stop-color="white"/>
</linearGradient>
<linearGradient id="paint5_linear_51_522" x1="157.201" y1="27.4834" x2="157.201" y2="24.2116" gradientUnits="userSpaceOnUse">
<stop stop-color="white" stop-opacity="0"/>
<stop offset="1" stop-color="white"/>
</linearGradient>
<clipPath id="clip0_51_522">
<rect width="96" height="33" fill="white" transform="translate(66.5 13.5)"/>
</clipPath>
</defs>
</svg>
