<svg width="61" height="60" viewBox="0 0 61 60" fill="none" xmlns="http://www.w3.org/2000/svg">
<path d="M48.8011 28.3889C48.5601 28.3889 48.3246 28.4827 48.1242 28.6584C47.9238 28.8341 47.7677 29.0839 47.6754 29.3761C47.5832 29.6683 47.5591 29.9898 47.6061 30.3001C47.6531 30.6103 47.7692 30.8952 47.9396 31.1189C48.11 31.3425 48.3271 31.4948 48.5634 31.5565C48.7998 31.6182 49.0448 31.5866 49.2674 31.4655C49.4901 31.3445 49.6804 31.1395 49.8142 30.8765C49.9481 30.6135 50.0196 30.3044 50.0196 29.9881C50.0196 29.5639 49.8912 29.1572 49.6627 28.8573C49.4342 28.5573 49.1243 28.3889 48.8011 28.3889ZM40.272 6H37.8351C34.0601 6.00731 30.3796 7.5486 27.2989 10.4121C24.2183 13.2756 21.8889 17.3208 20.6306 21.992H6.15535C5.8322 21.992 5.52228 21.8236 5.29378 21.5236C5.06527 21.2237 4.9369 20.817 4.9369 20.3928V17.1944C4.9369 16.7703 5.06527 16.3635 5.29378 16.0636C5.52228 15.7637 5.8322 15.5952 6.15535 15.5952H18.3399C18.663 15.5952 18.9729 15.4267 19.2014 15.1268C19.4299 14.8269 19.5583 14.4202 19.5583 13.996C19.5583 13.5719 19.4299 13.1651 19.2014 12.8652C18.9729 12.5653 18.663 12.3968 18.3399 12.3968H6.15535C5.18589 12.3968 4.25614 12.9023 3.57063 13.802C2.88512 14.7017 2.5 15.922 2.5 17.1944V20.3928C2.5 21.6652 2.88512 22.8855 3.57063 23.7853C4.25614 24.685 5.18589 25.1905 6.15535 25.1905H7.59312C7.45717 25.7053 7.38318 26.2449 7.3738 26.7897V29.9881C7.38318 30.5328 7.45717 31.0724 7.59312 31.5873H6.15535C5.18589 31.5873 4.25614 32.0927 3.57063 32.9925C2.88512 33.8922 2.5 35.1125 2.5 36.3849V39.5833C2.5 40.8557 2.88512 42.076 3.57063 42.9757C4.25614 43.8754 5.18589 44.3809 6.15535 44.3809H7.59312C7.45717 44.8958 7.38318 45.4353 7.3738 45.9801V49.1785C7.3738 50.4509 7.75892 51.6712 8.44443 52.5709C9.12994 53.4707 10.0597 53.9761 11.0292 53.9761H30.5244C31.3147 53.9716 32.0832 53.6354 32.7176 53.0166C34.382 53.6416 36.1039 53.9645 37.8351 53.9761C38.249 54.008 38.664 54.008 39.0779 53.9761H40.2232C45.0705 53.9761 49.7193 51.4488 53.1469 46.9502C56.5744 42.4516 58.5 36.3501 58.5 29.9881C58.5 23.626 56.5744 17.5246 53.1469 13.0259C49.7193 8.52731 45.0705 6 40.2232 6H40.272ZM9.81071 26.7897C9.81071 26.3655 9.93908 25.9588 10.1676 25.6588C10.3961 25.3589 10.706 25.1905 11.0292 25.1905H19.9238C19.6781 26.7692 19.5556 28.3767 19.5583 29.9881C19.5341 30.5207 19.5341 31.0547 19.5583 31.5873H11.0292C10.706 31.5873 10.3961 31.4188 10.1676 31.1189C9.93908 30.819 9.81071 30.4122 9.81071 29.9881V26.7897ZM11.0292 50.7777C10.706 50.7777 10.3961 50.6092 10.1676 50.3093C9.93908 50.0094 9.81071 49.6026 9.81071 49.1785V45.9801C9.81071 45.556 9.93908 45.1492 10.1676 44.8493C10.3961 44.5494 10.706 44.3809 11.0292 44.3809H23.2137C24.7123 46.9782 26.5935 49.1536 28.7454 50.7777H11.0292ZM53.48 33.1865C53.4682 33.4848 53.4682 33.7837 53.48 34.082C53.48 34.5618 53.3094 35.0415 53.2119 35.5213C53.1979 35.67 53.1979 35.8204 53.2119 35.9691C53.0913 36.5137 52.9448 37.0478 52.7733 37.5683C52.7764 37.6429 52.7764 37.7176 52.7733 37.7922C52.6032 38.3611 52.4079 38.9164 52.1884 39.4554C50.9433 42.6323 49.0971 45.3362 46.827 47.3076C44.5568 49.279 41.9389 50.4519 39.2241 50.7137H38.1031C35.2488 50.7177 32.4466 49.7093 29.993 47.795C27.5393 45.8808 25.5254 43.132 24.1641 39.8392C24.0096 39.4736 23.7522 39.202 23.4471 39.0825C23.1419 38.9629 22.8132 39.0049 22.5313 39.1995C22.2774 39.3771 22.0809 39.669 21.978 40.0216C21.875 40.3742 21.8725 40.7637 21.9708 41.1185H6.15535C5.8322 41.1185 5.52228 40.95 5.29378 40.6501C5.06527 40.3502 4.9369 39.9435 4.9369 39.5193V36.3849C4.9369 35.9607 5.06527 35.554 5.29378 35.2541C5.52228 34.9542 5.8322 34.7857 6.15535 34.7857H19.9238C19.9352 34.8488 19.9352 34.9145 19.9238 34.9776C19.9994 35.3832 20.1907 35.7353 20.4581 35.9615C20.7256 36.1876 21.049 36.2704 21.3616 36.193C21.52 36.155 21.6709 36.0755 21.8053 35.959C21.9396 35.8426 22.0546 35.6917 22.1434 35.5154C22.2322 35.3392 22.2929 35.1411 22.3219 34.9333C22.3508 34.7254 22.3475 34.512 22.312 34.3059C22.0957 32.8843 21.9896 31.4377 21.9952 29.9881C22.0017 24.4769 23.6726 19.1939 26.6417 15.2969C29.6109 11.3999 33.6361 9.20687 37.8351 9.19841H38.9561C41.6659 9.45389 44.2806 10.6171 46.5503 12.577C48.82 14.5368 50.6689 17.2278 51.9204 20.3928C52.1399 20.9318 52.3351 21.4871 52.5052 22.056C52.5083 22.1306 52.5083 22.2053 52.5052 22.2799C52.6768 22.8004 52.8233 23.3345 52.9439 23.8791C52.9299 24.0278 52.9299 24.1782 52.9439 24.3269C52.9439 24.8066 53.1144 25.2864 53.2119 25.7662C53.2001 26.0645 53.2001 26.3634 53.2119 26.6617V31.8431C53.2119 32.5148 53.5287 32.7707 53.48 33.1865ZM45.1458 18.7936C45.1458 18.3695 45.0174 17.9627 44.7889 17.6628C44.5604 17.3629 44.2505 17.1944 43.9273 17.1944H31.7428C31.4197 17.1944 31.1097 17.3629 30.8812 17.6628C30.6527 17.9627 30.5244 18.3695 30.5244 18.7936C30.5244 19.2178 30.6527 19.6245 30.8812 19.9244C31.1097 20.2244 31.4197 20.3928 31.7428 20.3928H36.6166C37.3699 20.4002 38.1034 20.7109 38.7178 21.2829C39.3323 21.8549 39.7982 22.6606 40.0527 23.5912H31.7428C31.4197 23.5912 31.1097 23.7597 30.8812 24.0596C30.6527 24.3596 30.5244 24.7663 30.5244 25.1905C30.5244 25.6146 30.6527 26.0214 30.8812 26.3213C31.1097 26.6212 31.4197 26.7897 31.7428 26.7897H40.0527C39.7982 27.7203 39.3323 28.526 38.7178 29.098C38.1034 29.67 37.3699 29.9807 36.6166 29.9881H31.7428C31.5023 29.9896 31.2675 30.0846 31.068 30.2611C30.8685 30.4375 30.7133 30.6875 30.6218 30.9796C30.5223 31.2678 30.4946 31.59 30.5428 31.9001C30.5909 32.2102 30.7124 32.4925 30.8899 32.7067L38.2006 42.3019C38.3094 42.4556 38.4415 42.5776 38.5884 42.6603C38.7353 42.7429 38.8937 42.7843 39.0535 42.7817H41.4904C41.8136 42.7817 42.1235 42.6132 42.352 42.3133C42.5805 42.0134 42.7089 41.6066 42.7089 41.1825C42.7089 40.7584 42.5805 40.3516 42.352 40.0517C42.1235 39.7518 41.8136 39.5833 41.4904 39.5833H39.5653L34.6915 33.1865H36.6166C38.0419 33.2242 39.4321 32.6047 40.5453 31.4359C41.6584 30.2671 42.4241 28.6229 42.7089 26.7897H44.0492C44.3723 26.7897 44.6822 26.6212 44.9108 26.3213C45.1393 26.0214 45.2676 25.6146 45.2676 25.1905C45.2676 24.7663 45.1393 24.3596 44.9108 24.0596C44.6822 23.7597 44.3723 23.5912 44.0492 23.5912H42.7089C42.5178 22.4304 42.1352 21.3386 41.5879 20.3928H44.0248C44.3308 20.3606 44.6162 20.178 44.824 19.8815C45.0319 19.585 45.1468 19.1965 45.1458 18.7936ZM26.869 28.3889C26.628 28.3889 26.3925 28.4827 26.1921 28.6584C25.9917 28.8341 25.8355 29.0839 25.7433 29.3761C25.6511 29.6683 25.627 29.9898 25.674 30.3001C25.721 30.6103 25.837 30.8952 26.0074 31.1189C26.1778 31.3425 26.395 31.4948 26.6313 31.5565C26.8677 31.6182 27.1127 31.5866 27.3353 31.4655C27.5579 31.3445 27.7482 31.1395 27.8821 30.8765C28.016 30.6135 28.0875 30.3044 28.0875 29.9881C28.0875 29.5639 27.9591 29.1572 27.7306 28.8573C27.5021 28.5573 27.1922 28.3889 26.869 28.3889Z" fill="#1C355E"/>
</svg>
